<svg width="1970" height="980" viewBox="0 0 1970 980" fill="none" xmlns="http://www.w3.org/2000/svg">
<path d="M46.8966 67.9303C43.1779 69.2764 39.1731 70 35 70C30.8269 70 26.8053 69.2596 23.1034 67.9303C23.0529 67.9134 23.0192 67.8966 22.9688 67.8798C17.9207 66.0288 13.4111 63.0505 9.74279 59.2308C3.70192 52.9375 0 44.4062 0 35C0 15.6659 15.6659 0 35 0C54.3341 0 70 15.6659 70 35C70 44.4062 66.2981 52.9375 60.2572 59.2308C60.0889 59.399 59.9207 59.5841 59.7524 59.7524C56.1514 63.3533 51.7764 66.1634 46.9135 67.9303H46.8966ZM35 14.1346C33.149 14.1346 31.6346 15.649 31.6346 17.5V19.8558C30.3558 20.1418 29.0769 20.5961 27.899 21.2861C25.5601 22.6827 23.5409 25.1226 23.5577 28.6731C23.5745 32.0889 25.5769 34.2428 27.7139 35.5216C29.5649 36.6322 31.8702 37.3389 33.7043 37.8774L33.9904 37.9615C36.1106 38.6009 37.6587 39.1058 38.7019 39.762C39.5601 40.3005 39.6779 40.6707 39.6947 41.1418C39.7115 41.9832 39.3918 42.488 38.7019 42.9086C37.8606 43.4303 36.5312 43.75 35.101 43.6995C33.2332 43.6322 31.4832 43.0433 29.1947 42.2692C28.8077 42.1346 28.4038 42 27.9832 41.8654C26.2163 41.2764 24.3149 42.2356 23.726 43.9856C23.137 45.7356 24.0962 47.6538 25.8462 48.2428C26.1659 48.3437 26.5192 48.4615 26.8726 48.5961C28.2692 49.0841 29.8846 49.6394 31.6178 50.0096V52.5C31.6178 54.3509 33.1322 55.8654 34.9832 55.8654C36.8341 55.8654 38.3486 54.3509 38.3486 52.5V50.1779C39.6947 49.8918 41.0409 49.4207 42.2524 48.6634C44.6587 47.1659 46.476 44.6082 46.4255 41.0913C46.375 37.6755 44.4567 35.4711 42.2861 34.0913C40.351 32.8798 37.9279 32.1394 36.0433 31.5673L35.9255 31.5336C33.7716 30.8774 32.2404 30.4062 31.1635 29.7668C30.2885 29.2452 30.2716 28.9423 30.2716 28.6394C30.2716 28.0168 30.5072 27.5457 31.3149 27.0745C32.2236 26.536 33.6034 26.2163 34.9327 26.2332C36.5481 26.25 38.3317 26.6034 40.1827 27.1082C41.9832 27.5793 43.8173 26.5192 44.3053 24.7187C44.7933 22.9183 43.7163 21.0841 41.9159 20.5961C40.8221 20.3101 39.6106 20.024 38.3654 19.8053V17.5C38.3654 15.649 36.851 14.1346 35 14.1346Z" fill="#EBC069"/>
<path d="M46.8966 67.9303C43.1779 69.2764 39.1731 70 35 70C30.8269 70 26.8053 69.2596 23.1034 67.9303C23.0529 67.9134 23.0192 67.8966 22.9688 67.8798C17.9207 66.0288 13.4111 63.0505 9.74279 59.2308C3.70192 52.9375 0 44.4062 0 35C0 15.6659 15.6659 0 35 0C54.3341 0 70 15.6659 70 35C70 44.4062 66.2981 52.9375 60.2572 59.2308C60.0889 59.399 59.9207 59.5841 59.7524 59.7524C56.1514 63.3533 51.7764 66.1634 46.9135 67.9303H46.8966ZM35 14.1346C33.149 14.1346 31.6346 15.649 31.6346 17.5V19.8558C30.3558 20.1418 29.0769 20.5961 27.899 21.2861C25.5601 22.6827 23.5409 25.1226 23.5577 28.6731C23.5745 32.0889 25.5769 34.2428 27.7139 35.5216C29.5649 36.6322 31.8702 37.3389 33.7043 37.8774L33.9904 37.9615C36.1106 38.6009 37.6587 39.1058 38.7019 39.762C39.5601 40.3005 39.6779 40.6707 39.6947 41.1418C39.7115 41.9832 39.3918 42.488 38.7019 42.9086C37.8606 43.4303 36.5312 43.75 35.101 43.6995C33.2332 43.6322 31.4832 43.0433 29.1947 42.2692C28.8077 42.1346 28.4038 42 27.9832 41.8654C26.2163 41.2764 24.3149 42.2356 23.726 43.9856C23.137 45.7356 24.0962 47.6538 25.8462 48.2428C26.1659 48.3437 26.5192 48.4615 26.8726 48.5961C28.2692 49.0841 29.8846 49.6394 31.6178 50.0096V52.5C31.6178 54.3509 33.1322 55.8654 34.9832 55.8654C36.8341 55.8654 38.3486 54.3509 38.3486 52.5V50.1779C39.6947 49.8918 41.0409 49.4207 42.2524 48.6634C44.6587 47.1659 46.476 44.6082 46.4255 41.0913C46.375 37.6755 44.4567 35.4711 42.2861 34.0913C40.351 32.8798 37.9279 32.1394 36.0433 31.5673L35.9255 31.5336C33.7716 30.8774 32.2404 30.4062 31.1635 29.7668C30.2885 29.2452 30.2716 28.9423 30.2716 28.6394C30.2716 28.0168 30.5072 27.5457 31.3149 27.0745C32.2236 26.536 33.6034 26.2163 34.9327 26.2332C36.5481 26.25 38.3317 26.6034 40.1827 27.1082C41.9832 27.5793 43.8173 26.5192 44.3053 24.7187C44.7933 22.9183 43.7163 21.0841 41.9159 20.5961C40.8221 20.3101 39.6106 20.024 38.3654 19.8053V17.5C38.3654 15.649 36.851 14.1346 35 14.1346Z" fill="#EBC069"/>
<path d="M130 142.577V190.986C130 193.799 131.753 196.455 134.688 197.44C149.792 202.518 164.896 199.049 180 195.58C193.854 192.408 207.708 189.22 221.545 192.627C225.538 193.611 230 191.142 230 187.408V139.014C230 136.201 228.247 133.545 225.312 132.56C210.208 127.482 195.104 130.951 180 134.42C166.146 137.592 152.292 140.764 138.455 137.358C134.444 136.373 130 138.842 130 142.577ZM152.222 190.002H141.111V180.001C147.24 180.001 152.222 184.486 152.222 190.002ZM141.111 160V149.999H152.222C152.222 155.515 147.24 160 141.111 160ZM207.778 180.001C207.778 174.485 212.76 170 218.889 170V180.001H207.778ZM218.889 149.999C212.76 149.999 207.778 145.514 207.778 139.998H218.889V149.999ZM196.667 165C196.667 174.672 189.201 182.501 180 182.501C170.799 182.501 163.333 174.672 163.333 165C163.333 155.328 170.799 147.499 180 147.499C189.201 147.499 196.667 155.328 196.667 165ZM173.75 157.5C173.75 159.015 174.948 160.265 176.528 160.562V168.125H175.833C173.924 168.125 172.361 169.532 172.361 171.25C172.361 172.969 173.924 174.376 175.833 174.376H180H184.167C186.076 174.376 187.639 172.969 187.639 171.25C187.639 169.532 186.076 168.125 184.167 168.125H183.472V157.5C183.472 155.781 181.91 154.374 180 154.374H177.222C175.312 154.374 173.75 155.781 173.75 157.5Z" fill="#88BA53"/>
<path d="M46.8966 327.93C43.1779 329.276 39.1731 330 35 330C30.8269 330 26.8053 329.26 23.1034 327.93C23.0529 327.913 23.0192 327.897 22.9688 327.88C17.9207 326.029 13.4111 323.05 9.74279 319.231C3.70192 312.937 0 304.406 0 295C0 275.666 15.6659 260 35 260C54.3341 260 70 275.666 70 295C70 304.406 66.2981 312.937 60.2572 319.231C60.0889 319.399 59.9207 319.584 59.7524 319.752C56.1514 323.353 51.7764 326.163 46.9135 327.93H46.8966ZM35 274.135C33.149 274.135 31.6346 275.649 31.6346 277.5V279.856C30.3558 280.142 29.0769 280.596 27.899 281.286C25.5601 282.683 23.5409 285.123 23.5577 288.673C23.5745 292.089 25.5769 294.243 27.7139 295.522C29.5649 296.632 31.8702 297.339 33.7043 297.877L33.9904 297.962C36.1106 298.601 37.6587 299.106 38.7019 299.762C39.5601 300.3 39.6779 300.671 39.6947 301.142C39.7115 301.983 39.3918 302.488 38.7019 302.909C37.8606 303.43 36.5312 303.75 35.101 303.7C33.2332 303.632 31.4832 303.043 29.1947 302.269C28.8077 302.135 28.4038 302 27.9832 301.865C26.2163 301.276 24.3149 302.236 23.726 303.986C23.137 305.736 24.0962 307.654 25.8462 308.243C26.1659 308.344 26.5192 308.462 26.8726 308.596C28.2692 309.084 29.8846 309.639 31.6178 310.01V312.5C31.6178 314.351 33.1322 315.865 34.9832 315.865C36.8341 315.865 38.3486 314.351 38.3486 312.5V310.178C39.6947 309.892 41.0409 309.421 42.2524 308.663C44.6587 307.166 46.476 304.608 46.4255 301.091C46.375 297.675 44.4567 295.471 42.2861 294.091C40.351 292.88 37.9279 292.139 36.0433 291.567L35.9255 291.534C33.7716 290.877 32.2404 290.406 31.1635 289.767C30.2885 289.245 30.2716 288.942 30.2716 288.639C30.2716 288.017 30.5072 287.546 31.3149 287.075C32.2236 286.536 33.6034 286.216 34.9327 286.233C36.5481 286.25 38.3317 286.603 40.1827 287.108C41.9832 287.579 43.8173 286.519 44.3053 284.719C44.7933 282.918 43.7163 281.084 41.9159 280.596C40.8221 280.31 39.6106 280.024 38.3654 279.805V277.5C38.3654 275.649 36.851 274.135 35 274.135Z" fill="#EBC069"/>
<path d="M130 402.577V450.986C130 453.799 131.753 456.455 134.688 457.44C149.792 462.518 164.896 459.049 180 455.58C193.854 452.408 207.708 449.22 221.545 452.627C225.538 453.611 230 451.142 230 447.408V399.014C230 396.201 228.247 393.545 225.312 392.56C210.208 387.482 195.104 390.951 180 394.42C166.146 397.592 152.292 400.764 138.455 397.358C134.444 396.373 130 398.842 130 402.577ZM152.222 450.002H141.111V440.001C147.24 440.001 152.222 444.486 152.222 450.002ZM141.111 420V409.999H152.222C152.222 415.515 147.24 420 141.111 420ZM207.778 440.001C207.778 434.485 212.76 430 218.889 430V440.001H207.778ZM218.889 409.999C212.76 409.999 207.778 405.514 207.778 399.998H218.889V409.999ZM196.667 425C196.667 434.672 189.201 442.501 180 442.501C170.799 442.501 163.333 434.672 163.333 425C163.333 415.328 170.799 407.499 180 407.499C189.201 407.499 196.667 415.328 196.667 425ZM173.75 417.5C173.75 419.015 174.948 420.265 176.528 420.562V428.125H175.833C173.924 428.125 172.361 429.532 172.361 431.25C172.361 432.969 173.924 434.376 175.833 434.376H180H184.167C186.076 434.376 187.639 432.969 187.639 431.25C187.639 429.532 186.076 428.125 184.167 428.125H183.472V417.5C183.472 415.781 181.91 414.374 180 414.374H177.222C175.312 414.374 173.75 415.781 173.75 417.5Z" fill="#88BA53"/>
<path d="M46.8966 587.93C43.1779 589.276 39.1731 590 35 590C30.8269 590 26.8053 589.26 23.1034 587.93C23.0529 587.913 23.0192 587.897 22.9688 587.88C17.9207 586.029 13.4111 583.05 9.74279 579.231C3.70192 572.937 0 564.406 0 555C0 535.666 15.6659 520 35 520C54.3341 520 70 535.666 70 555C70 564.406 66.2981 572.937 60.2572 579.231C60.0889 579.399 59.9207 579.584 59.7524 579.752C56.1514 583.353 51.7764 586.163 46.9135 587.93H46.8966ZM35 534.135C33.149 534.135 31.6346 535.649 31.6346 537.5V539.856C30.3558 540.142 29.0769 540.596 27.899 541.286C25.5601 542.683 23.5409 545.123 23.5577 548.673C23.5745 552.089 25.5769 554.243 27.7139 555.522C29.5649 556.632 31.8702 557.339 33.7043 557.877L33.9904 557.962C36.1106 558.601 37.6587 559.106 38.7019 559.762C39.5601 560.3 39.6779 560.671 39.6947 561.142C39.7115 561.983 39.3918 562.488 38.7019 562.909C37.8606 563.43 36.5312 563.75 35.101 563.7C33.2332 563.632 31.4832 563.043 29.1947 562.269C28.8077 562.135 28.4038 562 27.9832 561.865C26.2163 561.276 24.3149 562.236 23.726 563.986C23.137 565.736 24.0962 567.654 25.8462 568.243C26.1659 568.344 26.5192 568.462 26.8726 568.596C28.2692 569.084 29.8846 569.639 31.6178 570.01V572.5C31.6178 574.351 33.1322 575.865 34.9832 575.865C36.8341 575.865 38.3486 574.351 38.3486 572.5V570.178C39.6947 569.892 41.0409 569.421 42.2524 568.663C44.6587 567.166 46.476 564.608 46.4255 561.091C46.375 557.675 44.4567 555.471 42.2861 554.091C40.351 552.88 37.9279 552.139 36.0433 551.567L35.9255 551.534C33.7716 550.877 32.2404 550.406 31.1635 549.767C30.2885 549.245 30.2716 548.942 30.2716 548.639C30.2716 548.017 30.5072 547.546 31.3149 547.075C32.2236 546.536 33.6034 546.216 34.9327 546.233C36.5481 546.25 38.3317 546.603 40.1827 547.108C41.9832 547.579 43.8173 546.519 44.3053 544.719C44.7933 542.918 43.7163 541.084 41.9159 540.596C40.8221 540.31 39.6106 540.024 38.3654 539.805V537.5C38.3654 535.649 36.851 534.135 35 534.135Z" fill="#EBC069"/>
<path d="M130 662.577V710.986C130 713.799 131.753 716.455 134.688 717.44C149.792 722.518 164.896 719.049 180 715.58C193.854 712.408 207.708 709.22 221.545 712.627C225.538 713.611 230 711.142 230 707.408V659.014C230 656.201 228.247 653.545 225.312 652.56C210.208 647.482 195.104 650.951 180 654.42C166.146 657.592 152.292 660.764 138.455 657.358C134.444 656.373 130 658.842 130 662.577ZM152.222 710.002H141.111V700.001C147.24 700.001 152.222 704.486 152.222 710.002ZM141.111 680V669.999H152.222C152.222 675.515 147.24 680 141.111 680ZM207.778 700.001C207.778 694.485 212.76 690 218.889 690V700.001H207.778ZM218.889 669.999C212.76 669.999 207.778 665.514 207.778 659.998H218.889V669.999ZM196.667 685C196.667 694.672 189.201 702.501 180 702.501C170.799 702.501 163.333 694.672 163.333 685C163.333 675.328 170.799 667.499 180 667.499C189.201 667.499 196.667 675.328 196.667 685ZM173.75 677.5C173.75 679.015 174.948 680.265 176.528 680.562V688.125H175.833C173.924 688.125 172.361 689.532 172.361 691.25C172.361 692.969 173.924 694.376 175.833 694.376H180H184.167C186.076 694.376 187.639 692.969 187.639 691.25C187.639 689.532 186.076 688.125 184.167 688.125H183.472V677.5C183.472 675.781 181.91 674.374 180 674.374H177.222C175.312 674.374 173.75 675.781 173.75 677.5Z" fill="#88BA53"/>
<path d="M46.8966 847.93C43.1779 849.276 39.1731 850 35 850C30.8269 850 26.8053 849.26 23.1034 847.93C23.0529 847.913 23.0192 847.897 22.9688 847.88C17.9207 846.029 13.4111 843.05 9.74279 839.231C3.70192 832.937 0 824.406 0 815C0 795.666 15.6659 780 35 780C54.3341 780 70 795.666 70 815C70 824.406 66.2981 832.937 60.2572 839.231C60.0889 839.399 59.9207 839.584 59.7524 839.752C56.1514 843.353 51.7764 846.163 46.9135 847.93H46.8966ZM35 794.135C33.149 794.135 31.6346 795.649 31.6346 797.5V799.856C30.3558 800.142 29.0769 800.596 27.899 801.286C25.5601 802.683 23.5409 805.123 23.5577 808.673C23.5745 812.089 25.5769 814.243 27.7139 815.522C29.5649 816.632 31.8702 817.339 33.7043 817.877L33.9904 817.962C36.1106 818.601 37.6587 819.106 38.7019 819.762C39.5601 820.3 39.6779 820.671 39.6947 821.142C39.7115 821.983 39.3918 822.488 38.7019 822.909C37.8606 823.43 36.5312 823.75 35.101 823.7C33.2332 823.632 31.4832 823.043 29.1947 822.269C28.8077 822.135 28.4038 822 27.9832 821.865C26.2163 821.276 24.3149 822.236 23.726 823.986C23.137 825.736 24.0962 827.654 25.8462 828.243C26.1659 828.344 26.5192 828.462 26.8726 828.596C28.2692 829.084 29.8846 829.639 31.6178 830.01V832.5C31.6178 834.351 33.1322 835.865 34.9832 835.865C36.8341 835.865 38.3486 834.351 38.3486 832.5V830.178C39.6947 829.892 41.0409 829.421 42.2524 828.663C44.6587 827.166 46.476 824.608 46.4255 821.091C46.375 817.675 44.4567 815.471 42.2861 814.091C40.351 812.88 37.9279 812.139 36.0433 811.567L35.9255 811.534C33.7716 810.877 32.2404 810.406 31.1635 809.767C30.2885 809.245 30.2716 808.942 30.2716 808.639C30.2716 808.017 30.5072 807.546 31.3149 807.075C32.2236 806.536 33.6034 806.216 34.9327 806.233C36.5481 806.25 38.3317 806.603 40.1827 807.108C41.9832 807.579 43.8173 806.519 44.3053 804.719C44.7933 802.918 43.7163 801.084 41.9159 800.596C40.8221 800.31 39.6106 800.024 38.3654 799.805V797.5C38.3654 795.649 36.851 794.135 35 794.135Z" fill="#EBC069"/>
<path d="M130 922.577V970.986C130 973.799 131.753 976.455 134.688 977.44C149.792 982.518 164.896 979.049 180 975.58C193.854 972.408 207.708 969.22 221.545 972.627C225.538 973.611 230 971.142 230 967.408V919.014C230 916.201 228.247 913.545 225.312 912.56C210.208 907.482 195.104 910.951 180 914.42C166.146 917.592 152.292 920.764 138.455 917.358C134.444 916.373 130 918.842 130 922.577ZM152.222 970.002H141.111V960.001C147.24 960.001 152.222 964.486 152.222 970.002ZM141.111 940V929.999H152.222C152.222 935.515 147.24 940 141.111 940ZM207.778 960.001C207.778 954.485 212.76 950 218.889 950V960.001H207.778ZM218.889 929.999C212.76 929.999 207.778 925.514 207.778 919.998H218.889V929.999ZM196.667 945C196.667 954.672 189.201 962.501 180 962.501C170.799 962.501 163.333 954.672 163.333 945C163.333 935.328 170.799 927.499 180 927.499C189.201 927.499 196.667 935.328 196.667 945ZM173.75 937.5C173.75 939.015 174.948 940.265 176.528 940.562V948.125H175.833C173.924 948.125 172.361 949.532 172.361 951.25C172.361 952.969 173.924 954.376 175.833 954.376H180H184.167C186.076 954.376 187.639 952.969 187.639 951.25C187.639 949.532 186.076 948.125 184.167 948.125H183.472V937.5C183.472 935.781 181.91 934.374 180 934.374H177.222C175.312 934.374 173.75 935.781 173.75 937.5Z" fill="#88BA53"/>
<path d="M336.897 67.9303C333.178 69.2764 329.173 70 325 70C320.827 70 316.805 69.2596 313.103 67.9303C313.053 67.9134 313.019 67.8966 312.969 67.8798C307.921 66.0288 303.411 63.0505 299.743 59.2308C293.702 52.9375 290 44.4062 290 35C290 15.6659 305.666 0 325 0C344.334 0 360 15.6659 360 35C360 44.4062 356.298 52.9375 350.257 59.2308C350.089 59.399 349.921 59.5841 349.752 59.7524C346.151 63.3533 341.776 66.1634 336.913 67.9303H336.897ZM325 14.1346C323.149 14.1346 321.635 15.649 321.635 17.5V19.8558C320.356 20.1418 319.077 20.5961 317.899 21.2861C315.56 22.6827 313.541 25.1226 313.558 28.6731C313.575 32.0889 315.577 34.2428 317.714 35.5216C319.565 36.6322 321.87 37.3389 323.704 37.8774L323.99 37.9615C326.111 38.6009 327.659 39.1058 328.702 39.762C329.56 40.3005 329.678 40.6707 329.695 41.1418C329.712 41.9832 329.392 42.488 328.702 42.9086C327.861 43.4303 326.531 43.75 325.101 43.6995C323.233 43.6322 321.483 43.0433 319.195 42.2692C318.808 42.1346 318.404 42 317.983 41.8654C316.216 41.2764 314.315 42.2356 313.726 43.9856C313.137 45.7356 314.096 47.6538 315.846 48.2428C316.166 48.3437 316.519 48.4615 316.873 48.5961C318.269 49.0841 319.885 49.6394 321.618 50.0096V52.5C321.618 54.3509 323.132 55.8654 324.983 55.8654C326.834 55.8654 328.349 54.3509 328.349 52.5V50.1779C329.695 49.8918 331.041 49.4207 332.252 48.6634C334.659 47.1659 336.476 44.6082 336.425 41.0913C336.375 37.6755 334.457 35.4711 332.286 34.0913C330.351 32.8798 327.928 32.1394 326.043 31.5673L325.925 31.5336C323.772 30.8774 322.24 30.4062 321.163 29.7668C320.288 29.2452 320.272 28.9423 320.272 28.6394C320.272 28.0168 320.507 27.5457 321.315 27.0745C322.224 26.536 323.603 26.2163 324.933 26.2332C326.548 26.25 328.332 26.6034 330.183 27.1082C331.983 27.5793 333.817 26.5192 334.305 24.7187C334.793 22.9183 333.716 21.0841 331.916 20.5961C330.822 20.3101 329.611 20.024 328.365 19.8053V17.5C328.365 15.649 326.851 14.1346 325 14.1346Z" fill="#EBC069"/>
<path d="M420 142.577V190.986C420 193.799 421.753 196.455 424.688 197.44C439.792 202.518 454.896 199.049 470 195.58C483.854 192.408 497.708 189.22 511.545 192.627C515.538 193.611 520 191.142 520 187.408V139.014C520 136.201 518.247 133.545 515.312 132.56C500.208 127.482 485.104 130.951 470 134.42C456.146 137.592 442.292 140.764 428.455 137.358C424.444 136.373 420 138.842 420 142.577ZM442.222 190.002H431.111V180.001C437.24 180.001 442.222 184.486 442.222 190.002ZM431.111 160V149.999H442.222C442.222 155.515 437.24 160 431.111 160ZM497.778 180.001C497.778 174.485 502.76 170 508.889 170V180.001H497.778ZM508.889 149.999C502.76 149.999 497.778 145.514 497.778 139.998H508.889V149.999ZM486.667 165C486.667 174.672 479.201 182.501 470 182.501C460.799 182.501 453.333 174.672 453.333 165C453.333 155.328 460.799 147.499 470 147.499C479.201 147.499 486.667 155.328 486.667 165ZM463.75 157.5C463.75 159.015 464.948 160.265 466.528 160.562V168.125H465.833C463.924 168.125 462.361 169.532 462.361 171.25C462.361 172.969 463.924 174.376 465.833 174.376H470H474.167C476.076 174.376 477.639 172.969 477.639 171.25C477.639 169.532 476.076 168.125 474.167 168.125H473.472V157.5C473.472 155.781 471.91 154.374 470 154.374H467.222C465.312 154.374 463.75 155.781 463.75 157.5Z" fill="#88BA53"/>
<path d="M336.897 327.93C333.178 329.276 329.173 330 325 330C320.827 330 316.805 329.26 313.103 327.93C313.053 327.913 313.019 327.897 312.969 327.88C307.921 326.029 303.411 323.05 299.743 319.231C293.702 312.937 290 304.406 290 295C290 275.666 305.666 260 325 260C344.334 260 360 275.666 360 295C360 304.406 356.298 312.937 350.257 319.231C350.089 319.399 349.921 319.584 349.752 319.752C346.151 323.353 341.776 326.163 336.913 327.93H336.897ZM325 274.135C323.149 274.135 321.635 275.649 321.635 277.5V279.856C320.356 280.142 319.077 280.596 317.899 281.286C315.56 282.683 313.541 285.123 313.558 288.673C313.575 292.089 315.577 294.243 317.714 295.522C319.565 296.632 321.87 297.339 323.704 297.877L323.99 297.962C326.111 298.601 327.659 299.106 328.702 299.762C329.56 300.3 329.678 300.671 329.695 301.142C329.712 301.983 329.392 302.488 328.702 302.909C327.861 303.43 326.531 303.75 325.101 303.7C323.233 303.632 321.483 303.043 319.195 302.269C318.808 302.135 318.404 302 317.983 301.865C316.216 301.276 314.315 302.236 313.726 303.986C313.137 305.736 314.096 307.654 315.846 308.243C316.166 308.344 316.519 308.462 316.873 308.596C318.269 309.084 319.885 309.639 321.618 310.01V312.5C321.618 314.351 323.132 315.865 324.983 315.865C326.834 315.865 328.349 314.351 328.349 312.5V310.178C329.695 309.892 331.041 309.421 332.252 308.663C334.659 307.166 336.476 304.608 336.425 301.091C336.375 297.675 334.457 295.471 332.286 294.091C330.351 292.88 327.928 292.139 326.043 291.567L325.925 291.534C323.772 290.877 322.24 290.406 321.163 289.767C320.288 289.245 320.272 288.942 320.272 288.639C320.272 288.017 320.507 287.546 321.315 287.075C322.224 286.536 323.603 286.216 324.933 286.233C326.548 286.25 328.332 286.603 330.183 287.108C331.983 287.579 333.817 286.519 334.305 284.719C334.793 282.918 333.716 281.084 331.916 280.596C330.822 280.31 329.611 280.024 328.365 279.805V277.5C328.365 275.649 326.851 274.135 325 274.135Z" fill="#EBC069"/>
<path d="M420 402.577V450.986C420 453.799 421.753 456.455 424.688 457.44C439.792 462.518 454.896 459.049 470 455.58C483.854 452.408 497.708 449.22 511.545 452.627C515.538 453.611 520 451.142 520 447.408V399.014C520 396.201 518.247 393.545 515.312 392.56C500.208 387.482 485.104 390.951 470 394.42C456.146 397.592 442.292 400.764 428.455 397.358C424.444 396.373 420 398.842 420 402.577ZM442.222 450.002H431.111V440.001C437.24 440.001 442.222 444.486 442.222 450.002ZM431.111 420V409.999H442.222C442.222 415.515 437.24 420 431.111 420ZM497.778 440.001C497.778 434.485 502.76 430 508.889 430V440.001H497.778ZM508.889 409.999C502.76 409.999 497.778 405.514 497.778 399.998H508.889V409.999ZM486.667 425C486.667 434.672 479.201 442.501 470 442.501C460.799 442.501 453.333 434.672 453.333 425C453.333 415.328 460.799 407.499 470 407.499C479.201 407.499 486.667 415.328 486.667 425ZM463.75 417.5C463.75 419.015 464.948 420.265 466.528 420.562V428.125H465.833C463.924 428.125 462.361 429.532 462.361 431.25C462.361 432.969 463.924 434.376 465.833 434.376H470H474.167C476.076 434.376 477.639 432.969 477.639 431.25C477.639 429.532 476.076 428.125 474.167 428.125H473.472V417.5C473.472 415.781 471.91 414.374 470 414.374H467.222C465.312 414.374 463.75 415.781 463.75 417.5Z" fill="#88BA53"/>
<path d="M336.897 587.93C333.178 589.276 329.173 590 325 590C320.827 590 316.805 589.26 313.103 587.93C313.053 587.913 313.019 587.897 312.969 587.88C307.921 586.029 303.411 583.05 299.743 579.231C293.702 572.937 290 564.406 290 555C290 535.666 305.666 520 325 520C344.334 520 360 535.666 360 555C360 564.406 356.298 572.937 350.257 579.231C350.089 579.399 349.921 579.584 349.752 579.752C346.151 583.353 341.776 586.163 336.913 587.93H336.897ZM325 534.135C323.149 534.135 321.635 535.649 321.635 537.5V539.856C320.356 540.142 319.077 540.596 317.899 541.286C315.56 542.683 313.541 545.123 313.558 548.673C313.575 552.089 315.577 554.243 317.714 555.522C319.565 556.632 321.87 557.339 323.704 557.877L323.99 557.962C326.111 558.601 327.659 559.106 328.702 559.762C329.56 560.3 329.678 560.671 329.695 561.142C329.712 561.983 329.392 562.488 328.702 562.909C327.861 563.43 326.531 563.75 325.101 563.7C323.233 563.632 321.483 563.043 319.195 562.269C318.808 562.135 318.404 562 317.983 561.865C316.216 561.276 314.315 562.236 313.726 563.986C313.137 565.736 314.096 567.654 315.846 568.243C316.166 568.344 316.519 568.462 316.873 568.596C318.269 569.084 319.885 569.639 321.618 570.01V572.5C321.618 574.351 323.132 575.865 324.983 575.865C326.834 575.865 328.349 574.351 328.349 572.5V570.178C329.695 569.892 331.041 569.421 332.252 568.663C334.659 567.166 336.476 564.608 336.425 561.091C336.375 557.675 334.457 555.471 332.286 554.091C330.351 552.88 327.928 552.139 326.043 551.567L325.925 551.534C323.772 550.877 322.24 550.406 321.163 549.767C320.288 549.245 320.272 548.942 320.272 548.639C320.272 548.017 320.507 547.546 321.315 547.075C322.224 546.536 323.603 546.216 324.933 546.233C326.548 546.25 328.332 546.603 330.183 547.108C331.983 547.579 333.817 546.519 334.305 544.719C334.793 542.918 333.716 541.084 331.916 540.596C330.822 540.31 329.611 540.024 328.365 539.805V537.5C328.365 535.649 326.851 534.135 325 534.135Z" fill="#EBC069"/>
<path d="M420 662.577V710.986C420 713.799 421.753 716.455 424.688 717.44C439.792 722.518 454.896 719.049 470 715.58C483.854 712.408 497.708 709.22 511.545 712.627C515.538 713.611 520 711.142 520 707.408V659.014C520 656.201 518.247 653.545 515.312 652.56C500.208 647.482 485.104 650.951 470 654.42C456.146 657.592 442.292 660.764 428.455 657.358C424.444 656.373 420 658.842 420 662.577ZM442.222 710.002H431.111V700.001C437.24 700.001 442.222 704.486 442.222 710.002ZM431.111 680V669.999H442.222C442.222 675.515 437.24 680 431.111 680ZM497.778 700.001C497.778 694.485 502.76 690 508.889 690V700.001H497.778ZM508.889 669.999C502.76 669.999 497.778 665.514 497.778 659.998H508.889V669.999ZM486.667 685C486.667 694.672 479.201 702.501 470 702.501C460.799 702.501 453.333 694.672 453.333 685C453.333 675.328 460.799 667.499 470 667.499C479.201 667.499 486.667 675.328 486.667 685ZM463.75 677.5C463.75 679.015 464.948 680.265 466.528 680.562V688.125H465.833C463.924 688.125 462.361 689.532 462.361 691.25C462.361 692.969 463.924 694.376 465.833 694.376H470H474.167C476.076 694.376 477.639 692.969 477.639 691.25C477.639 689.532 476.076 688.125 474.167 688.125H473.472V677.5C473.472 675.781 471.91 674.374 470 674.374H467.222C465.312 674.374 463.75 675.781 463.75 677.5Z" fill="#88BA53"/>
<path d="M336.897 847.93C333.178 849.276 329.173 850 325 850C320.827 850 316.805 849.26 313.103 847.93C313.053 847.913 313.019 847.897 312.969 847.88C307.921 846.029 303.411 843.05 299.743 839.231C293.702 832.937 290 824.406 290 815C290 795.666 305.666 780 325 780C344.334 780 360 795.666 360 815C360 824.406 356.298 832.937 350.257 839.231C350.089 839.399 349.921 839.584 349.752 839.752C346.151 843.353 341.776 846.163 336.913 847.93H336.897ZM325 794.135C323.149 794.135 321.635 795.649 321.635 797.5V799.856C320.356 800.142 319.077 800.596 317.899 801.286C315.56 802.683 313.541 805.123 313.558 808.673C313.575 812.089 315.577 814.243 317.714 815.522C319.565 816.632 321.87 817.339 323.704 817.877L323.99 817.962C326.111 818.601 327.659 819.106 328.702 819.762C329.56 820.3 329.678 820.671 329.695 821.142C329.712 821.983 329.392 822.488 328.702 822.909C327.861 823.43 326.531 823.75 325.101 823.7C323.233 823.632 321.483 823.043 319.195 822.269C318.808 822.135 318.404 822 317.983 821.865C316.216 821.276 314.315 822.236 313.726 823.986C313.137 825.736 314.096 827.654 315.846 828.243C316.166 828.344 316.519 828.462 316.873 828.596C318.269 829.084 319.885 829.639 321.618 830.01V832.5C321.618 834.351 323.132 835.865 324.983 835.865C326.834 835.865 328.349 834.351 328.349 832.5V830.178C329.695 829.892 331.041 829.421 332.252 828.663C334.659 827.166 336.476 824.608 336.425 821.091C336.375 817.675 334.457 815.471 332.286 814.091C330.351 812.88 327.928 812.139 326.043 811.567L325.925 811.534C323.772 810.877 322.24 810.406 321.163 809.767C320.288 809.245 320.272 808.942 320.272 808.639C320.272 808.017 320.507 807.546 321.315 807.075C322.224 806.536 323.603 806.216 324.933 806.233C326.548 806.25 328.332 806.603 330.183 807.108C331.983 807.579 333.817 806.519 334.305 804.719C334.793 802.918 333.716 801.084 331.916 800.596C330.822 800.31 329.611 800.024 328.365 799.805V797.5C328.365 795.649 326.851 794.135 325 794.135Z" fill="#EBC069"/>
<path d="M420 922.577V970.986C420 973.799 421.753 976.455 424.688 977.44C439.792 982.518 454.896 979.049 470 975.58C483.854 972.408 497.708 969.22 511.545 972.627C515.538 973.611 520 971.142 520 967.408V919.014C520 916.201 518.247 913.545 515.312 912.56C500.208 907.482 485.104 910.951 470 914.42C456.146 917.592 442.292 920.764 428.455 917.358C424.444 916.373 420 918.842 420 922.577ZM442.222 970.002H431.111V960.001C437.24 960.001 442.222 964.486 442.222 970.002ZM431.111 940V929.999H442.222C442.222 935.515 437.24 940 431.111 940ZM497.778 960.001C497.778 954.485 502.76 950 508.889 950V960.001H497.778ZM508.889 929.999C502.76 929.999 497.778 925.514 497.778 919.998H508.889V929.999ZM486.667 945C486.667 954.672 479.201 962.501 470 962.501C460.799 962.501 453.333 954.672 453.333 945C453.333 935.328 460.799 927.499 470 927.499C479.201 927.499 486.667 935.328 486.667 945ZM463.75 937.5C463.75 939.015 464.948 940.265 466.528 940.562V948.125H465.833C463.924 948.125 462.361 949.532 462.361 951.25C462.361 952.969 463.924 954.376 465.833 954.376H470H474.167C476.076 954.376 477.639 952.969 477.639 951.25C477.639 949.532 476.076 948.125 474.167 948.125H473.472V937.5C473.472 935.781 471.91 934.374 470 934.374H467.222C465.312 934.374 463.75 935.781 463.75 937.5Z" fill="#88BA53"/>
<path d="M626.897 67.9303C623.178 69.2764 619.173 70 615 70C610.827 70 606.805 69.2596 603.103 67.9303C603.053 67.9134 603.019 67.8966 602.969 67.8798C597.921 66.0288 593.411 63.0505 589.743 59.2308C583.702 52.9375 580 44.4062 580 35C580 15.6659 595.666 0 615 0C634.334 0 650 15.6659 650 35C650 44.4062 646.298 52.9375 640.257 59.2308C640.089 59.399 639.921 59.5841 639.752 59.7524C636.151 63.3533 631.776 66.1634 626.913 67.9303H626.897ZM615 14.1346C613.149 14.1346 611.635 15.649 611.635 17.5V19.8558C610.356 20.1418 609.077 20.5961 607.899 21.2861C605.56 22.6827 603.541 25.1226 603.558 28.6731C603.575 32.0889 605.577 34.2428 607.714 35.5216C609.565 36.6322 611.87 37.3389 613.704 37.8774L613.99 37.9615C616.111 38.6009 617.659 39.1058 618.702 39.762C619.56 40.3005 619.678 40.6707 619.695 41.1418C619.712 41.9832 619.392 42.488 618.702 42.9086C617.861 43.4303 616.531 43.75 615.101 43.6995C613.233 43.6322 611.483 43.0433 609.195 42.2692C608.808 42.1346 608.404 42 607.983 41.8654C606.216 41.2764 604.315 42.2356 603.726 43.9856C603.137 45.7356 604.096 47.6538 605.846 48.2428C606.166 48.3437 606.519 48.4615 606.873 48.5961C608.269 49.0841 609.885 49.6394 611.618 50.0096V52.5C611.618 54.3509 613.132 55.8654 614.983 55.8654C616.834 55.8654 618.349 54.3509 618.349 52.5V50.1779C619.695 49.8918 621.041 49.4207 622.252 48.6634C624.659 47.1659 626.476 44.6082 626.425 41.0913C626.375 37.6755 624.457 35.4711 622.286 34.0913C620.351 32.8798 617.928 32.1394 616.043 31.5673L615.925 31.5336C613.772 30.8774 612.24 30.4062 611.163 29.7668C610.288 29.2452 610.272 28.9423 610.272 28.6394C610.272 28.0168 610.507 27.5457 611.315 27.0745C612.224 26.536 613.603 26.2163 614.933 26.2332C616.548 26.25 618.332 26.6034 620.183 27.1082C621.983 27.5793 623.817 26.5192 624.305 24.7187C624.793 22.9183 623.716 21.0841 621.916 20.5961C620.822 20.3101 619.611 20.024 618.365 19.8053V17.5C618.365 15.649 616.851 14.1346 615 14.1346Z" fill="#EBC069"/>
<path d="M710 142.577V190.986C710 193.799 711.753 196.455 714.688 197.44C729.792 202.518 744.896 199.049 760 195.58C773.854 192.408 787.708 189.22 801.545 192.627C805.538 193.611 810 191.142 810 187.408V139.014C810 136.201 808.247 133.545 805.312 132.56C790.208 127.482 775.104 130.951 760 134.42C746.146 137.592 732.292 140.764 718.455 137.358C714.444 136.373 710 138.842 710 142.577ZM732.222 190.002H721.111V180.001C727.24 180.001 732.222 184.486 732.222 190.002ZM721.111 160V149.999H732.222C732.222 155.515 727.24 160 721.111 160ZM787.778 180.001C787.778 174.485 792.76 170 798.889 170V180.001H787.778ZM798.889 149.999C792.76 149.999 787.778 145.514 787.778 139.998H798.889V149.999ZM776.667 165C776.667 174.672 769.201 182.501 760 182.501C750.799 182.501 743.333 174.672 743.333 165C743.333 155.328 750.799 147.499 760 147.499C769.201 147.499 776.667 155.328 776.667 165ZM753.75 157.5C753.75 159.015 754.948 160.265 756.528 160.562V168.125H755.833C753.924 168.125 752.361 169.532 752.361 171.25C752.361 172.969 753.924 174.376 755.833 174.376H760H764.167C766.076 174.376 767.639 172.969 767.639 171.25C767.639 169.532 766.076 168.125 764.167 168.125H763.472V157.5C763.472 155.781 761.91 154.374 760 154.374H757.222C755.312 154.374 753.75 155.781 753.75 157.5Z" fill="#88BA53"/>
<path d="M916.897 67.9303C913.178 69.2764 909.173 70 905 70C900.827 70 896.805 69.2596 893.103 67.9303C893.053 67.9134 893.019 67.8966 892.969 67.8798C887.921 66.0288 883.411 63.0505 879.743 59.2308C873.702 52.9375 870 44.4062 870 35C870 15.6659 885.666 0 905 0C924.334 0 940 15.6659 940 35C940 44.4062 936.298 52.9375 930.257 59.2308C930.089 59.399 929.921 59.5841 929.752 59.7524C926.151 63.3533 921.776 66.1634 916.913 67.9303H916.897ZM905 14.1346C903.149 14.1346 901.635 15.649 901.635 17.5V19.8558C900.356 20.1418 899.077 20.5961 897.899 21.2861C895.56 22.6827 893.541 25.1226 893.558 28.6731C893.575 32.0889 895.577 34.2428 897.714 35.5216C899.565 36.6322 901.87 37.3389 903.704 37.8774L903.99 37.9615C906.111 38.6009 907.659 39.1058 908.702 39.762C909.56 40.3005 909.678 40.6707 909.695 41.1418C909.712 41.9832 909.392 42.488 908.702 42.9086C907.861 43.4303 906.531 43.75 905.101 43.6995C903.233 43.6322 901.483 43.0433 899.195 42.2692C898.808 42.1346 898.404 42 897.983 41.8654C896.216 41.2764 894.315 42.2356 893.726 43.9856C893.137 45.7356 894.096 47.6538 895.846 48.2428C896.166 48.3437 896.519 48.4615 896.873 48.5961C898.269 49.0841 899.885 49.6394 901.618 50.0096V52.5C901.618 54.3509 903.132 55.8654 904.983 55.8654C906.834 55.8654 908.349 54.3509 908.349 52.5V50.1779C909.695 49.8918 911.041 49.4207 912.252 48.6634C914.659 47.1659 916.476 44.6082 916.425 41.0913C916.375 37.6755 914.457 35.4711 912.286 34.0913C910.351 32.8798 907.928 32.1394 906.043 31.5673L905.925 31.5336C903.772 30.8774 902.24 30.4062 901.163 29.7668C900.288 29.2452 900.272 28.9423 900.272 28.6394C900.272 28.0168 900.507 27.5457 901.315 27.0745C902.224 26.536 903.603 26.2163 904.933 26.2332C906.548 26.25 908.332 26.6034 910.183 27.1082C911.983 27.5793 913.817 26.5192 914.305 24.7187C914.793 22.9183 913.716 21.0841 911.916 20.5961C910.822 20.3101 909.611 20.024 908.365 19.8053V17.5C908.365 15.649 906.851 14.1346 905 14.1346Z" fill="#EBC069"/>
<path d="M1000 142.577V190.986C1000 193.799 1001.75 196.455 1004.69 197.44C1019.79 202.518 1034.9 199.049 1050 195.58C1063.85 192.408 1077.71 189.22 1091.55 192.627C1095.54 193.611 1100 191.142 1100 187.408V139.014C1100 136.201 1098.25 133.545 1095.31 132.56C1080.21 127.482 1065.1 130.951 1050 134.42C1036.15 137.592 1022.29 140.764 1008.45 137.358C1004.44 136.373 1000 138.842 1000 142.577ZM1022.22 190.002H1011.11V180.001C1017.24 180.001 1022.22 184.486 1022.22 190.002ZM1011.11 160V149.999H1022.22C1022.22 155.515 1017.24 160 1011.11 160ZM1077.78 180.001C1077.78 174.485 1082.76 170 1088.89 170V180.001H1077.78ZM1088.89 149.999C1082.76 149.999 1077.78 145.514 1077.78 139.998H1088.89V149.999ZM1066.67 165C1066.67 174.672 1059.2 182.501 1050 182.501C1040.8 182.501 1033.33 174.672 1033.33 165C1033.33 155.328 1040.8 147.499 1050 147.499C1059.2 147.499 1066.67 155.328 1066.67 165ZM1043.75 157.5C1043.75 159.015 1044.95 160.265 1046.53 160.562V168.125H1045.83C1043.92 168.125 1042.36 169.532 1042.36 171.25C1042.36 172.969 1043.92 174.376 1045.83 174.376H1050H1054.17C1056.08 174.376 1057.64 172.969 1057.64 171.25C1057.64 169.532 1056.08 168.125 1054.17 168.125H1053.47V157.5C1053.47 155.781 1051.91 154.374 1050 154.374H1047.22C1045.31 154.374 1043.75 155.781 1043.75 157.5Z" fill="#88BA53"/>
<path d="M1206.9 67.9303C1203.18 69.2764 1199.17 70 1195 70C1190.83 70 1186.81 69.2596 1183.1 67.9303C1183.05 67.9134 1183.02 67.8966 1182.97 67.8798C1177.92 66.0288 1173.41 63.0505 1169.74 59.2308C1163.7 52.9375 1160 44.4062 1160 35C1160 15.6659 1175.67 0 1195 0C1214.33 0 1230 15.6659 1230 35C1230 44.4062 1226.3 52.9375 1220.26 59.2308C1220.09 59.399 1219.92 59.5841 1219.75 59.7524C1216.15 63.3533 1211.78 66.1634 1206.91 67.9303H1206.9ZM1195 14.1346C1193.15 14.1346 1191.63 15.649 1191.63 17.5V19.8558C1190.36 20.1418 1189.08 20.5961 1187.9 21.2861C1185.56 22.6827 1183.54 25.1226 1183.56 28.6731C1183.57 32.0889 1185.58 34.2428 1187.71 35.5216C1189.56 36.6322 1191.87 37.3389 1193.7 37.8774L1193.99 37.9615C1196.11 38.6009 1197.66 39.1058 1198.7 39.762C1199.56 40.3005 1199.68 40.6707 1199.69 41.1418C1199.71 41.9832 1199.39 42.488 1198.7 42.9086C1197.86 43.4303 1196.53 43.75 1195.1 43.6995C1193.23 43.6322 1191.48 43.0433 1189.19 42.2692C1188.81 42.1346 1188.4 42 1187.98 41.8654C1186.22 41.2764 1184.31 42.2356 1183.73 43.9856C1183.14 45.7356 1184.1 47.6538 1185.85 48.2428C1186.17 48.3437 1186.52 48.4615 1186.87 48.5961C1188.27 49.0841 1189.88 49.6394 1191.62 50.0096V52.5C1191.62 54.3509 1193.13 55.8654 1194.98 55.8654C1196.83 55.8654 1198.35 54.3509 1198.35 52.5V50.1779C1199.69 49.8918 1201.04 49.4207 1202.25 48.6634C1204.66 47.1659 1206.48 44.6082 1206.43 41.0913C1206.38 37.6755 1204.46 35.4711 1202.29 34.0913C1200.35 32.8798 1197.93 32.1394 1196.04 31.5673L1195.93 31.5336C1193.77 30.8774 1192.24 30.4062 1191.16 29.7668C1190.29 29.2452 1190.27 28.9423 1190.27 28.6394C1190.27 28.0168 1190.51 27.5457 1191.31 27.0745C1192.22 26.536 1193.6 26.2163 1194.93 26.2332C1196.55 26.25 1198.33 26.6034 1200.18 27.1082C1201.98 27.5793 1203.82 26.5192 1204.31 24.7187C1204.79 22.9183 1203.72 21.0841 1201.92 20.5961C1200.82 20.3101 1199.61 20.024 1198.37 19.8053V17.5C1198.37 15.649 1196.85 14.1346 1195 14.1346Z" fill="#EBC069"/>
<path d="M1290 142.577V190.986C1290 193.799 1291.75 196.455 1294.69 197.44C1309.79 202.518 1324.9 199.049 1340 195.58C1353.85 192.408 1367.71 189.22 1381.55 192.627C1385.54 193.611 1390 191.142 1390 187.408V139.014C1390 136.201 1388.25 133.545 1385.31 132.56C1370.21 127.482 1355.1 130.951 1340 134.42C1326.15 137.592 1312.29 140.764 1298.45 137.358C1294.44 136.373 1290 138.842 1290 142.577ZM1312.22 190.002H1301.11V180.001C1307.24 180.001 1312.22 184.486 1312.22 190.002ZM1301.11 160V149.999H1312.22C1312.22 155.515 1307.24 160 1301.11 160ZM1367.78 180.001C1367.78 174.485 1372.76 170 1378.89 170V180.001H1367.78ZM1378.89 149.999C1372.76 149.999 1367.78 145.514 1367.78 139.998H1378.89V149.999ZM1356.67 165C1356.67 174.672 1349.2 182.501 1340 182.501C1330.8 182.501 1323.33 174.672 1323.33 165C1323.33 155.328 1330.8 147.499 1340 147.499C1349.2 147.499 1356.67 155.328 1356.67 165ZM1333.75 157.5C1333.75 159.015 1334.95 160.265 1336.53 160.562V168.125H1335.83C1333.92 168.125 1332.36 169.532 1332.36 171.25C1332.36 172.969 1333.92 174.376 1335.83 174.376H1340H1344.17C1346.08 174.376 1347.64 172.969 1347.64 171.25C1347.64 169.532 1346.08 168.125 1344.17 168.125H1343.47V157.5C1343.47 155.781 1341.91 154.374 1340 154.374H1337.22C1335.31 154.374 1333.75 155.781 1333.75 157.5Z" fill="#88BA53"/>
<path d="M1496.9 67.9303C1493.18 69.2764 1489.17 70 1485 70C1480.83 70 1476.81 69.2596 1473.1 67.9303C1473.05 67.9134 1473.02 67.8966 1472.97 67.8798C1467.92 66.0288 1463.41 63.0505 1459.74 59.2308C1453.7 52.9375 1450 44.4062 1450 35C1450 15.6659 1465.67 0 1485 0C1504.33 0 1520 15.6659 1520 35C1520 44.4062 1516.3 52.9375 1510.26 59.2308C1510.09 59.399 1509.92 59.5841 1509.75 59.7524C1506.15 63.3533 1501.78 66.1634 1496.91 67.9303H1496.9ZM1485 14.1346C1483.15 14.1346 1481.63 15.649 1481.63 17.5V19.8558C1480.36 20.1418 1479.08 20.5961 1477.9 21.2861C1475.56 22.6827 1473.54 25.1226 1473.56 28.6731C1473.57 32.0889 1475.58 34.2428 1477.71 35.5216C1479.56 36.6322 1481.87 37.3389 1483.7 37.8774L1483.99 37.9615C1486.11 38.6009 1487.66 39.1058 1488.7 39.762C1489.56 40.3005 1489.68 40.6707 1489.69 41.1418C1489.71 41.9832 1489.39 42.488 1488.7 42.9086C1487.86 43.4303 1486.53 43.75 1485.1 43.6995C1483.23 43.6322 1481.48 43.0433 1479.19 42.2692C1478.81 42.1346 1478.4 42 1477.98 41.8654C1476.22 41.2764 1474.31 42.2356 1473.73 43.9856C1473.14 45.7356 1474.1 47.6538 1475.85 48.2428C1476.17 48.3437 1476.52 48.4615 1476.87 48.5961C1478.27 49.0841 1479.88 49.6394 1481.62 50.0096V52.5C1481.62 54.3509 1483.13 55.8654 1484.98 55.8654C1486.83 55.8654 1488.35 54.3509 1488.35 52.5V50.1779C1489.69 49.8918 1491.04 49.4207 1492.25 48.6634C1494.66 47.1659 1496.48 44.6082 1496.43 41.0913C1496.38 37.6755 1494.46 35.4711 1492.29 34.0913C1490.35 32.8798 1487.93 32.1394 1486.04 31.5673L1485.93 31.5336C1483.77 30.8774 1482.24 30.4062 1481.16 29.7668C1480.29 29.2452 1480.27 28.9423 1480.27 28.6394C1480.27 28.0168 1480.51 27.5457 1481.31 27.0745C1482.22 26.536 1483.6 26.2163 1484.93 26.2332C1486.55 26.25 1488.33 26.6034 1490.18 27.1082C1491.98 27.5793 1493.82 26.5192 1494.31 24.7187C1494.79 22.9183 1493.72 21.0841 1491.92 20.5961C1490.82 20.3101 1489.61 20.024 1488.37 19.8053V17.5C1488.37 15.649 1486.85 14.1346 1485 14.1346Z" fill="#EBC069"/>
<path d="M1580 142.577V190.986C1580 193.799 1581.75 196.455 1584.69 197.44C1599.79 202.518 1614.9 199.049 1630 195.58C1643.85 192.408 1657.71 189.22 1671.55 192.627C1675.54 193.611 1680 191.142 1680 187.408V139.014C1680 136.201 1678.25 133.545 1675.31 132.56C1660.21 127.482 1645.1 130.951 1630 134.42C1616.15 137.592 1602.29 140.764 1588.45 137.358C1584.44 136.373 1580 138.842 1580 142.577ZM1602.22 190.002H1591.11V180.001C1597.24 180.001 1602.22 184.486 1602.22 190.002ZM1591.11 160V149.999H1602.22C1602.22 155.515 1597.24 160 1591.11 160ZM1657.78 180.001C1657.78 174.485 1662.76 170 1668.89 170V180.001H1657.78ZM1668.89 149.999C1662.76 149.999 1657.78 145.514 1657.78 139.998H1668.89V149.999ZM1646.67 165C1646.67 174.672 1639.2 182.501 1630 182.501C1620.8 182.501 1613.33 174.672 1613.33 165C1613.33 155.328 1620.8 147.499 1630 147.499C1639.2 147.499 1646.67 155.328 1646.67 165ZM1623.75 157.5C1623.75 159.015 1624.95 160.265 1626.53 160.562V168.125H1625.83C1623.92 168.125 1622.36 169.532 1622.36 171.25C1622.36 172.969 1623.92 174.376 1625.83 174.376H1630H1634.17C1636.08 174.376 1637.64 172.969 1637.64 171.25C1637.64 169.532 1636.08 168.125 1634.17 168.125H1633.47V157.5C1633.47 155.781 1631.91 154.374 1630 154.374H1627.22C1625.31 154.374 1623.75 155.781 1623.75 157.5Z" fill="#88BA53"/>
<path d="M1786.9 67.9303C1783.18 69.2764 1779.17 70 1775 70C1770.83 70 1766.81 69.2596 1763.1 67.9303C1763.05 67.9134 1763.02 67.8966 1762.97 67.8798C1757.92 66.0288 1753.41 63.0505 1749.74 59.2308C1743.7 52.9375 1740 44.4062 1740 35C1740 15.6659 1755.67 0 1775 0C1794.33 0 1810 15.6659 1810 35C1810 44.4062 1806.3 52.9375 1800.26 59.2308C1800.09 59.399 1799.92 59.5841 1799.75 59.7524C1796.15 63.3533 1791.78 66.1634 1786.91 67.9303H1786.9ZM1775 14.1346C1773.15 14.1346 1771.63 15.649 1771.63 17.5V19.8558C1770.36 20.1418 1769.08 20.5961 1767.9 21.2861C1765.56 22.6827 1763.54 25.1226 1763.56 28.6731C1763.57 32.0889 1765.58 34.2428 1767.71 35.5216C1769.56 36.6322 1771.87 37.3389 1773.7 37.8774L1773.99 37.9615C1776.11 38.6009 1777.66 39.1058 1778.7 39.762C1779.56 40.3005 1779.68 40.6707 1779.69 41.1418C1779.71 41.9832 1779.39 42.488 1778.7 42.9086C1777.86 43.4303 1776.53 43.75 1775.1 43.6995C1773.23 43.6322 1771.48 43.0433 1769.19 42.2692C1768.81 42.1346 1768.4 42 1767.98 41.8654C1766.22 41.2764 1764.31 42.2356 1763.73 43.9856C1763.14 45.7356 1764.1 47.6538 1765.85 48.2428C1766.17 48.3437 1766.52 48.4615 1766.87 48.5961C1768.27 49.0841 1769.88 49.6394 1771.62 50.0096V52.5C1771.62 54.3509 1773.13 55.8654 1774.98 55.8654C1776.83 55.8654 1778.35 54.3509 1778.35 52.5V50.1779C1779.69 49.8918 1781.04 49.4207 1782.25 48.6634C1784.66 47.1659 1786.48 44.6082 1786.43 41.0913C1786.38 37.6755 1784.46 35.4711 1782.29 34.0913C1780.35 32.8798 1777.93 32.1394 1776.04 31.5673L1775.93 31.5336C1773.77 30.8774 1772.24 30.4062 1771.16 29.7668C1770.29 29.2452 1770.27 28.9423 1770.27 28.6394C1770.27 28.0168 1770.51 27.5457 1771.31 27.0745C1772.22 26.536 1773.6 26.2163 1774.93 26.2332C1776.55 26.25 1778.33 26.6034 1780.18 27.1082C1781.98 27.5793 1783.82 26.5192 1784.31 24.7187C1784.79 22.9183 1783.72 21.0841 1781.92 20.5961C1780.82 20.3101 1779.61 20.024 1778.37 19.8053V17.5C1778.37 15.649 1776.85 14.1346 1775 14.1346Z" fill="#EBC069"/>
<path d="M1870 142.577V190.986C1870 193.799 1871.75 196.455 1874.69 197.44C1889.79 202.518 1904.9 199.049 1920 195.58C1933.85 192.408 1947.71 189.22 1961.55 192.627C1965.54 193.611 1970 191.142 1970 187.408V139.014C1970 136.201 1968.25 133.545 1965.31 132.56C1950.21 127.482 1935.1 130.951 1920 134.42C1906.15 137.592 1892.29 140.764 1878.45 137.358C1874.44 136.373 1870 138.842 1870 142.577ZM1892.22 190.002H1881.11V180.001C1887.24 180.001 1892.22 184.486 1892.22 190.002ZM1881.11 160V149.999H1892.22C1892.22 155.515 1887.24 160 1881.11 160ZM1947.78 180.001C1947.78 174.485 1952.76 170 1958.89 170V180.001H1947.78ZM1958.89 149.999C1952.76 149.999 1947.78 145.514 1947.78 139.998H1958.89V149.999ZM1936.67 165C1936.67 174.672 1929.2 182.501 1920 182.501C1910.8 182.501 1903.33 174.672 1903.33 165C1903.33 155.328 1910.8 147.499 1920 147.499C1929.2 147.499 1936.67 155.328 1936.67 165ZM1913.75 157.5C1913.75 159.015 1914.95 160.265 1916.53 160.562V168.125H1915.83C1913.92 168.125 1912.36 169.532 1912.36 171.25C1912.36 172.969 1913.92 174.376 1915.83 174.376H1920H1924.17C1926.08 174.376 1927.64 172.969 1927.64 171.25C1927.64 169.532 1926.08 168.125 1924.17 168.125H1923.47V157.5C1923.47 155.781 1921.91 154.374 1920 154.374H1917.22C1915.31 154.374 1913.75 155.781 1913.75 157.5Z" fill="#88BA53"/>
<path d="M626.897 327.93C623.178 329.276 619.173 330 615 330C610.827 330 606.805 329.26 603.103 327.93C603.053 327.913 603.019 327.897 602.969 327.88C597.921 326.029 593.411 323.05 589.743 319.231C583.702 312.937 580 304.406 580 295C580 275.666 595.666 260 615 260C634.334 260 650 275.666 650 295C650 304.406 646.298 312.937 640.257 319.231C640.089 319.399 639.921 319.584 639.752 319.752C636.151 323.353 631.776 326.163 626.913 327.93H626.897ZM615 274.135C613.149 274.135 611.635 275.649 611.635 277.5V279.856C610.356 280.142 609.077 280.596 607.899 281.286C605.56 282.683 603.541 285.123 603.558 288.673C603.575 292.089 605.577 294.243 607.714 295.522C609.565 296.632 611.87 297.339 613.704 297.877L613.99 297.962C616.111 298.601 617.659 299.106 618.702 299.762C619.56 300.3 619.678 300.671 619.695 301.142C619.712 301.983 619.392 302.488 618.702 302.909C617.861 303.43 616.531 303.75 615.101 303.7C613.233 303.632 611.483 303.043 609.195 302.269C608.808 302.135 608.404 302 607.983 301.865C606.216 301.276 604.315 302.236 603.726 303.986C603.137 305.736 604.096 307.654 605.846 308.243C606.166 308.344 606.519 308.462 606.873 308.596C608.269 309.084 609.885 309.639 611.618 310.01V312.5C611.618 314.351 613.132 315.865 614.983 315.865C616.834 315.865 618.349 314.351 618.349 312.5V310.178C619.695 309.892 621.041 309.421 622.252 308.663C624.659 307.166 626.476 304.608 626.425 301.091C626.375 297.675 624.457 295.471 622.286 294.091C620.351 292.88 617.928 292.139 616.043 291.567L615.925 291.534C613.772 290.877 612.24 290.406 611.163 289.767C610.288 289.245 610.272 288.942 610.272 288.639C610.272 288.017 610.507 287.546 611.315 287.075C612.224 286.536 613.603 286.216 614.933 286.233C616.548 286.25 618.332 286.603 620.183 287.108C621.983 287.579 623.817 286.519 624.305 284.719C624.793 282.918 623.716 281.084 621.916 280.596C620.822 280.31 619.611 280.024 618.365 279.805V277.5C618.365 275.649 616.851 274.135 615 274.135Z" fill="#EBC069"/>
<path d="M710 402.577V450.986C710 453.799 711.753 456.455 714.688 457.44C729.792 462.518 744.896 459.049 760 455.58C773.854 452.408 787.708 449.22 801.545 452.627C805.538 453.611 810 451.142 810 447.408V399.014C810 396.201 808.247 393.545 805.312 392.56C790.208 387.482 775.104 390.951 760 394.42C746.146 397.592 732.292 400.764 718.455 397.358C714.444 396.373 710 398.842 710 402.577ZM732.222 450.002H721.111V440.001C727.24 440.001 732.222 444.486 732.222 450.002ZM721.111 420V409.999H732.222C732.222 415.515 727.24 420 721.111 420ZM787.778 440.001C787.778 434.485 792.76 430 798.889 430V440.001H787.778ZM798.889 409.999C792.76 409.999 787.778 405.514 787.778 399.998H798.889V409.999ZM776.667 425C776.667 434.672 769.201 442.501 760 442.501C750.799 442.501 743.333 434.672 743.333 425C743.333 415.328 750.799 407.499 760 407.499C769.201 407.499 776.667 415.328 776.667 425ZM753.75 417.5C753.75 419.015 754.948 420.265 756.528 420.562V428.125H755.833C753.924 428.125 752.361 429.532 752.361 431.25C752.361 432.969 753.924 434.376 755.833 434.376H760H764.167C766.076 434.376 767.639 432.969 767.639 431.25C767.639 429.532 766.076 428.125 764.167 428.125H763.472V417.5C763.472 415.781 761.91 414.374 760 414.374H757.222C755.312 414.374 753.75 415.781 753.75 417.5Z" fill="#88BA53"/>
<path d="M626.897 587.93C623.178 589.276 619.173 590 615 590C610.827 590 606.805 589.26 603.103 587.93C603.053 587.913 603.019 587.897 602.969 587.88C597.921 586.029 593.411 583.05 589.743 579.231C583.702 572.937 580 564.406 580 555C580 535.666 595.666 520 615 520C634.334 520 650 535.666 650 555C650 564.406 646.298 572.937 640.257 579.231C640.089 579.399 639.921 579.584 639.752 579.752C636.151 583.353 631.776 586.163 626.913 587.93H626.897ZM615 534.135C613.149 534.135 611.635 535.649 611.635 537.5V539.856C610.356 540.142 609.077 540.596 607.899 541.286C605.56 542.683 603.541 545.123 603.558 548.673C603.575 552.089 605.577 554.243 607.714 555.522C609.565 556.632 611.87 557.339 613.704 557.877L613.99 557.962C616.111 558.601 617.659 559.106 618.702 559.762C619.56 560.3 619.678 560.671 619.695 561.142C619.712 561.983 619.392 562.488 618.702 562.909C617.861 563.43 616.531 563.75 615.101 563.7C613.233 563.632 611.483 563.043 609.195 562.269C608.808 562.135 608.404 562 607.983 561.865C606.216 561.276 604.315 562.236 603.726 563.986C603.137 565.736 604.096 567.654 605.846 568.243C606.166 568.344 606.519 568.462 606.873 568.596C608.269 569.084 609.885 569.639 611.618 570.01V572.5C611.618 574.351 613.132 575.865 614.983 575.865C616.834 575.865 618.349 574.351 618.349 572.5V570.178C619.695 569.892 621.041 569.421 622.252 568.663C624.659 567.166 626.476 564.608 626.425 561.091C626.375 557.675 624.457 555.471 622.286 554.091C620.351 552.88 617.928 552.139 616.043 551.567L615.925 551.534C613.772 550.877 612.24 550.406 611.163 549.767C610.288 549.245 610.272 548.942 610.272 548.639C610.272 548.017 610.507 547.546 611.315 547.075C612.224 546.536 613.603 546.216 614.933 546.233C616.548 546.25 618.332 546.603 620.183 547.108C621.983 547.579 623.817 546.519 624.305 544.719C624.793 542.918 623.716 541.084 621.916 540.596C620.822 540.31 619.611 540.024 618.365 539.805V537.5C618.365 535.649 616.851 534.135 615 534.135Z" fill="#EBC069"/>
<path d="M710 662.577V710.986C710 713.799 711.753 716.455 714.688 717.44C729.792 722.518 744.896 719.049 760 715.58C773.854 712.408 787.708 709.22 801.545 712.627C805.538 713.611 810 711.142 810 707.408V659.014C810 656.201 808.247 653.545 805.312 652.56C790.208 647.482 775.104 650.951 760 654.42C746.146 657.592 732.292 660.764 718.455 657.358C714.444 656.373 710 658.842 710 662.577ZM732.222 710.002H721.111V700.001C727.24 700.001 732.222 704.486 732.222 710.002ZM721.111 680V669.999H732.222C732.222 675.515 727.24 680 721.111 680ZM787.778 700.001C787.778 694.485 792.76 690 798.889 690V700.001H787.778ZM798.889 669.999C792.76 669.999 787.778 665.514 787.778 659.998H798.889V669.999ZM776.667 685C776.667 694.672 769.201 702.501 760 702.501C750.799 702.501 743.333 694.672 743.333 685C743.333 675.328 750.799 667.499 760 667.499C769.201 667.499 776.667 675.328 776.667 685ZM753.75 677.5C753.75 679.015 754.948 680.265 756.528 680.562V688.125H755.833C753.924 688.125 752.361 689.532 752.361 691.25C752.361 692.969 753.924 694.376 755.833 694.376H760H764.167C766.076 694.376 767.639 692.969 767.639 691.25C767.639 689.532 766.076 688.125 764.167 688.125H763.472V677.5C763.472 675.781 761.91 674.374 760 674.374H757.222C755.312 674.374 753.75 675.781 753.75 677.5Z" fill="#88BA53"/>
<path d="M626.897 847.93C623.178 849.276 619.173 850 615 850C610.827 850 606.805 849.26 603.103 847.93C603.053 847.913 603.019 847.897 602.969 847.88C597.921 846.029 593.411 843.05 589.743 839.231C583.702 832.937 580 824.406 580 815C580 795.666 595.666 780 615 780C634.334 780 650 795.666 650 815C650 824.406 646.298 832.937 640.257 839.231C640.089 839.399 639.921 839.584 639.752 839.752C636.151 843.353 631.776 846.163 626.913 847.93H626.897ZM615 794.135C613.149 794.135 611.635 795.649 611.635 797.5V799.856C610.356 800.142 609.077 800.596 607.899 801.286C605.56 802.683 603.541 805.123 603.558 808.673C603.575 812.089 605.577 814.243 607.714 815.522C609.565 816.632 611.87 817.339 613.704 817.877L613.99 817.962C616.111 818.601 617.659 819.106 618.702 819.762C619.56 820.3 619.678 820.671 619.695 821.142C619.712 821.983 619.392 822.488 618.702 822.909C617.861 823.43 616.531 823.75 615.101 823.7C613.233 823.632 611.483 823.043 609.195 822.269C608.808 822.135 608.404 822 607.983 821.865C606.216 821.276 604.315 822.236 603.726 823.986C603.137 825.736 604.096 827.654 605.846 828.243C606.166 828.344 606.519 828.462 606.873 828.596C608.269 829.084 609.885 829.639 611.618 830.01V832.5C611.618 834.351 613.132 835.865 614.983 835.865C616.834 835.865 618.349 834.351 618.349 832.5V830.178C619.695 829.892 621.041 829.421 622.252 828.663C624.659 827.166 626.476 824.608 626.425 821.091C626.375 817.675 624.457 815.471 622.286 814.091C620.351 812.88 617.928 812.139 616.043 811.567L615.925 811.534C613.772 810.877 612.24 810.406 611.163 809.767C610.288 809.245 610.272 808.942 610.272 808.639C610.272 808.017 610.507 807.546 611.315 807.075C612.224 806.536 613.603 806.216 614.933 806.233C616.548 806.25 618.332 806.603 620.183 807.108C621.983 807.579 623.817 806.519 624.305 804.719C624.793 802.918 623.716 801.084 621.916 800.596C620.822 800.31 619.611 800.024 618.365 799.805V797.5C618.365 795.649 616.851 794.135 615 794.135Z" fill="#EBC069"/>
<path d="M710 922.577V970.986C710 973.799 711.753 976.455 714.688 977.44C729.792 982.518 744.896 979.049 760 975.58C773.854 972.408 787.708 969.22 801.545 972.627C805.538 973.611 810 971.142 810 967.408V919.014C810 916.201 808.247 913.545 805.312 912.56C790.208 907.482 775.104 910.951 760 914.42C746.146 917.592 732.292 920.764 718.455 917.358C714.444 916.373 710 918.842 710 922.577ZM732.222 970.002H721.111V960.001C727.24 960.001 732.222 964.486 732.222 970.002ZM721.111 940V929.999H732.222C732.222 935.515 727.24 940 721.111 940ZM787.778 960.001C787.778 954.485 792.76 950 798.889 950V960.001H787.778ZM798.889 929.999C792.76 929.999 787.778 925.514 787.778 919.998H798.889V929.999ZM776.667 945C776.667 954.672 769.201 962.501 760 962.501C750.799 962.501 743.333 954.672 743.333 945C743.333 935.328 750.799 927.499 760 927.499C769.201 927.499 776.667 935.328 776.667 945ZM753.75 937.5C753.75 939.015 754.948 940.265 756.528 940.562V948.125H755.833C753.924 948.125 752.361 949.532 752.361 951.25C752.361 952.969 753.924 954.376 755.833 954.376H760H764.167C766.076 954.376 767.639 952.969 767.639 951.25C767.639 949.532 766.076 948.125 764.167 948.125H763.472V937.5C763.472 935.781 761.91 934.374 760 934.374H757.222C755.312 934.374 753.75 935.781 753.75 937.5Z" fill="#88BA53"/>
<path d="M916.897 327.93C913.178 329.276 909.173 330 905 330C900.827 330 896.805 329.26 893.103 327.93C893.053 327.913 893.019 327.897 892.969 327.88C887.921 326.029 883.411 323.05 879.743 319.231C873.702 312.937 870 304.406 870 295C870 275.666 885.666 260 905 260C924.334 260 940 275.666 940 295C940 304.406 936.298 312.937 930.257 319.231C930.089 319.399 929.921 319.584 929.752 319.752C926.151 323.353 921.776 326.163 916.913 327.93H916.897ZM905 274.135C903.149 274.135 901.635 275.649 901.635 277.5V279.856C900.356 280.142 899.077 280.596 897.899 281.286C895.56 282.683 893.541 285.123 893.558 288.673C893.575 292.089 895.577 294.243 897.714 295.522C899.565 296.632 901.87 297.339 903.704 297.877L903.99 297.962C906.111 298.601 907.659 299.106 908.702 299.762C909.56 300.3 909.678 300.671 909.695 301.142C909.712 301.983 909.392 302.488 908.702 302.909C907.861 303.43 906.531 303.75 905.101 303.7C903.233 303.632 901.483 303.043 899.195 302.269C898.808 302.135 898.404 302 897.983 301.865C896.216 301.276 894.315 302.236 893.726 303.986C893.137 305.736 894.096 307.654 895.846 308.243C896.166 308.344 896.519 308.462 896.873 308.596C898.269 309.084 899.885 309.639 901.618 310.01V312.5C901.618 314.351 903.132 315.865 904.983 315.865C906.834 315.865 908.349 314.351 908.349 312.5V310.178C909.695 309.892 911.041 309.421 912.252 308.663C914.659 307.166 916.476 304.608 916.425 301.091C916.375 297.675 914.457 295.471 912.286 294.091C910.351 292.88 907.928 292.139 906.043 291.567L905.925 291.534C903.772 290.877 902.24 290.406 901.163 289.767C900.288 289.245 900.272 288.942 900.272 288.639C900.272 288.017 900.507 287.546 901.315 287.075C902.224 286.536 903.603 286.216 904.933 286.233C906.548 286.25 908.332 286.603 910.183 287.108C911.983 287.579 913.817 286.519 914.305 284.719C914.793 282.918 913.716 281.084 911.916 280.596C910.822 280.31 909.611 280.024 908.365 279.805V277.5C908.365 275.649 906.851 274.135 905 274.135Z" fill="#EBC069"/>
<path d="M1000 402.577V450.986C1000 453.799 1001.75 456.455 1004.69 457.44C1019.79 462.518 1034.9 459.049 1050 455.58C1063.85 452.408 1077.71 449.22 1091.55 452.627C1095.54 453.611 1100 451.142 1100 447.408V399.014C1100 396.201 1098.25 393.545 1095.31 392.56C1080.21 387.482 1065.1 390.951 1050 394.42C1036.15 397.592 1022.29 400.764 1008.45 397.358C1004.44 396.373 1000 398.842 1000 402.577ZM1022.22 450.002H1011.11V440.001C1017.24 440.001 1022.22 444.486 1022.22 450.002ZM1011.11 420V409.999H1022.22C1022.22 415.515 1017.24 420 1011.11 420ZM1077.78 440.001C1077.78 434.485 1082.76 430 1088.89 430V440.001H1077.78ZM1088.89 409.999C1082.76 409.999 1077.78 405.514 1077.78 399.998H1088.89V409.999ZM1066.67 425C1066.67 434.672 1059.2 442.501 1050 442.501C1040.8 442.501 1033.33 434.672 1033.33 425C1033.33 415.328 1040.8 407.499 1050 407.499C1059.2 407.499 1066.67 415.328 1066.67 425ZM1043.75 417.5C1043.75 419.015 1044.95 420.265 1046.53 420.562V428.125H1045.83C1043.92 428.125 1042.36 429.532 1042.36 431.25C1042.36 432.969 1043.92 434.376 1045.83 434.376H1050H1054.17C1056.08 434.376 1057.64 432.969 1057.64 431.25C1057.64 429.532 1056.08 428.125 1054.17 428.125H1053.47V417.5C1053.47 415.781 1051.91 414.374 1050 414.374H1047.22C1045.31 414.374 1043.75 415.781 1043.75 417.5Z" fill="#88BA53"/>
<path d="M916.897 587.93C913.178 589.276 909.173 590 905 590C900.827 590 896.805 589.26 893.103 587.93C893.053 587.913 893.019 587.897 892.969 587.88C887.921 586.029 883.411 583.05 879.743 579.231C873.702 572.937 870 564.406 870 555C870 535.666 885.666 520 905 520C924.334 520 940 535.666 940 555C940 564.406 936.298 572.937 930.257 579.231C930.089 579.399 929.921 579.584 929.752 579.752C926.151 583.353 921.776 586.163 916.913 587.93H916.897ZM905 534.135C903.149 534.135 901.635 535.649 901.635 537.5V539.856C900.356 540.142 899.077 540.596 897.899 541.286C895.56 542.683 893.541 545.123 893.558 548.673C893.575 552.089 895.577 554.243 897.714 555.522C899.565 556.632 901.87 557.339 903.704 557.877L903.99 557.962C906.111 558.601 907.659 559.106 908.702 559.762C909.56 560.3 909.678 560.671 909.695 561.142C909.712 561.983 909.392 562.488 908.702 562.909C907.861 563.43 906.531 563.75 905.101 563.7C903.233 563.632 901.483 563.043 899.195 562.269C898.808 562.135 898.404 562 897.983 561.865C896.216 561.276 894.315 562.236 893.726 563.986C893.137 565.736 894.096 567.654 895.846 568.243C896.166 568.344 896.519 568.462 896.873 568.596C898.269 569.084 899.885 569.639 901.618 570.01V572.5C901.618 574.351 903.132 575.865 904.983 575.865C906.834 575.865 908.349 574.351 908.349 572.5V570.178C909.695 569.892 911.041 569.421 912.252 568.663C914.659 567.166 916.476 564.608 916.425 561.091C916.375 557.675 914.457 555.471 912.286 554.091C910.351 552.88 907.928 552.139 906.043 551.567L905.925 551.534C903.772 550.877 902.24 550.406 901.163 549.767C900.288 549.245 900.272 548.942 900.272 548.639C900.272 548.017 900.507 547.546 901.315 547.075C902.224 546.536 903.603 546.216 904.933 546.233C906.548 546.25 908.332 546.603 910.183 547.108C911.983 547.579 913.817 546.519 914.305 544.719C914.793 542.918 913.716 541.084 911.916 540.596C910.822 540.31 909.611 540.024 908.365 539.805V537.5C908.365 535.649 906.851 534.135 905 534.135Z" fill="#EBC069"/>
<path d="M1000 662.577V710.986C1000 713.799 1001.75 716.455 1004.69 717.44C1019.79 722.518 1034.9 719.049 1050 715.58C1063.85 712.408 1077.71 709.22 1091.55 712.627C1095.54 713.611 1100 711.142 1100 707.408V659.014C1100 656.201 1098.25 653.545 1095.31 652.56C1080.21 647.482 1065.1 650.951 1050 654.42C1036.15 657.592 1022.29 660.764 1008.45 657.358C1004.44 656.373 1000 658.842 1000 662.577ZM1022.22 710.002H1011.11V700.001C1017.24 700.001 1022.22 704.486 1022.22 710.002ZM1011.11 680V669.999H1022.22C1022.22 675.515 1017.24 680 1011.11 680ZM1077.78 700.001C1077.78 694.485 1082.76 690 1088.89 690V700.001H1077.78ZM1088.89 669.999C1082.76 669.999 1077.78 665.514 1077.78 659.998H1088.89V669.999ZM1066.67 685C1066.67 694.672 1059.2 702.501 1050 702.501C1040.8 702.501 1033.33 694.672 1033.33 685C1033.33 675.328 1040.8 667.499 1050 667.499C1059.2 667.499 1066.67 675.328 1066.67 685ZM1043.75 677.5C1043.75 679.015 1044.95 680.265 1046.53 680.562V688.125H1045.83C1043.92 688.125 1042.36 689.532 1042.36 691.25C1042.36 692.969 1043.92 694.376 1045.83 694.376H1050H1054.17C1056.08 694.376 1057.64 692.969 1057.64 691.25C1057.64 689.532 1056.08 688.125 1054.17 688.125H1053.47V677.5C1053.47 675.781 1051.91 674.374 1050 674.374H1047.22C1045.31 674.374 1043.75 675.781 1043.75 677.5Z" fill="#88BA53"/>
<path d="M916.897 847.93C913.178 849.276 909.173 850 905 850C900.827 850 896.805 849.26 893.103 847.93C893.053 847.913 893.019 847.897 892.969 847.88C887.921 846.029 883.411 843.05 879.743 839.231C873.702 832.937 870 824.406 870 815C870 795.666 885.666 780 905 780C924.334 780 940 795.666 940 815C940 824.406 936.298 832.937 930.257 839.231C930.089 839.399 929.921 839.584 929.752 839.752C926.151 843.353 921.776 846.163 916.913 847.93H916.897ZM905 794.135C903.149 794.135 901.635 795.649 901.635 797.5V799.856C900.356 800.142 899.077 800.596 897.899 801.286C895.56 802.683 893.541 805.123 893.558 808.673C893.575 812.089 895.577 814.243 897.714 815.522C899.565 816.632 901.87 817.339 903.704 817.877L903.99 817.962C906.111 818.601 907.659 819.106 908.702 819.762C909.56 820.3 909.678 820.671 909.695 821.142C909.712 821.983 909.392 822.488 908.702 822.909C907.861 823.43 906.531 823.75 905.101 823.7C903.233 823.632 901.483 823.043 899.195 822.269C898.808 822.135 898.404 822 897.983 821.865C896.216 821.276 894.315 822.236 893.726 823.986C893.137 825.736 894.096 827.654 895.846 828.243C896.166 828.344 896.519 828.462 896.873 828.596C898.269 829.084 899.885 829.639 901.618 830.01V832.5C901.618 834.351 903.132 835.865 904.983 835.865C906.834 835.865 908.349 834.351 908.349 832.5V830.178C909.695 829.892 911.041 829.421 912.252 828.663C914.659 827.166 916.476 824.608 916.425 821.091C916.375 817.675 914.457 815.471 912.286 814.091C910.351 812.88 907.928 812.139 906.043 811.567L905.925 811.534C903.772 810.877 902.24 810.406 901.163 809.767C900.288 809.245 900.272 808.942 900.272 808.639C900.272 808.017 900.507 807.546 901.315 807.075C902.224 806.536 903.603 806.216 904.933 806.233C906.548 806.25 908.332 806.603 910.183 807.108C911.983 807.579 913.817 806.519 914.305 804.719C914.793 802.918 913.716 801.084 911.916 800.596C910.822 800.31 909.611 800.024 908.365 799.805V797.5C908.365 795.649 906.851 794.135 905 794.135Z" fill="#EBC069"/>
<path d="M1000 922.577V970.986C1000 973.799 1001.75 976.455 1004.69 977.44C1019.79 982.518 1034.9 979.049 1050 975.58C1063.85 972.408 1077.71 969.22 1091.55 972.627C1095.54 973.611 1100 971.142 1100 967.408V919.014C1100 916.201 1098.25 913.545 1095.31 912.56C1080.21 907.482 1065.1 910.951 1050 914.42C1036.15 917.592 1022.29 920.764 1008.45 917.358C1004.44 916.373 1000 918.842 1000 922.577ZM1022.22 970.002H1011.11V960.001C1017.24 960.001 1022.22 964.486 1022.22 970.002ZM1011.11 940V929.999H1022.22C1022.22 935.515 1017.24 940 1011.11 940ZM1077.78 960.001C1077.78 954.485 1082.76 950 1088.89 950V960.001H1077.78ZM1088.89 929.999C1082.76 929.999 1077.78 925.514 1077.78 919.998H1088.89V929.999ZM1066.67 945C1066.67 954.672 1059.2 962.501 1050 962.501C1040.8 962.501 1033.33 954.672 1033.33 945C1033.33 935.328 1040.8 927.499 1050 927.499C1059.2 927.499 1066.67 935.328 1066.67 945ZM1043.75 937.5C1043.75 939.015 1044.95 940.265 1046.53 940.562V948.125H1045.83C1043.92 948.125 1042.36 949.532 1042.36 951.25C1042.36 952.969 1043.92 954.376 1045.83 954.376H1050H1054.17C1056.08 954.376 1057.64 952.969 1057.64 951.25C1057.64 949.532 1056.08 948.125 1054.17 948.125H1053.47V937.5C1053.47 935.781 1051.91 934.374 1050 934.374H1047.22C1045.31 934.374 1043.75 935.781 1043.75 937.5Z" fill="#88BA53"/>
<path d="M1206.9 327.93C1203.18 329.276 1199.17 330 1195 330C1190.83 330 1186.81 329.26 1183.1 327.93C1183.05 327.913 1183.02 327.897 1182.97 327.88C1177.92 326.029 1173.41 323.05 1169.74 319.231C1163.7 312.937 1160 304.406 1160 295C1160 275.666 1175.67 260 1195 260C1214.33 260 1230 275.666 1230 295C1230 304.406 1226.3 312.937 1220.26 319.231C1220.09 319.399 1219.92 319.584 1219.75 319.752C1216.15 323.353 1211.78 326.163 1206.91 327.93H1206.9ZM1195 274.135C1193.15 274.135 1191.63 275.649 1191.63 277.5V279.856C1190.36 280.142 1189.08 280.596 1187.9 281.286C1185.56 282.683 1183.54 285.123 1183.56 288.673C1183.57 292.089 1185.58 294.243 1187.71 295.522C1189.56 296.632 1191.87 297.339 1193.7 297.877L1193.99 297.962C1196.11 298.601 1197.66 299.106 1198.7 299.762C1199.56 300.3 1199.68 300.671 1199.69 301.142C1199.71 301.983 1199.39 302.488 1198.7 302.909C1197.86 303.43 1196.53 303.75 1195.1 303.7C1193.23 303.632 1191.48 303.043 1189.19 302.269C1188.81 302.135 1188.4 302 1187.98 301.865C1186.22 301.276 1184.31 302.236 1183.73 303.986C1183.14 305.736 1184.1 307.654 1185.85 308.243C1186.17 308.344 1186.52 308.462 1186.87 308.596C1188.27 309.084 1189.88 309.639 1191.62 310.01V312.5C1191.62 314.351 1193.13 315.865 1194.98 315.865C1196.83 315.865 1198.35 314.351 1198.35 312.5V310.178C1199.69 309.892 1201.04 309.421 1202.25 308.663C1204.66 307.166 1206.48 304.608 1206.43 301.091C1206.38 297.675 1204.46 295.471 1202.29 294.091C1200.35 292.88 1197.93 292.139 1196.04 291.567L1195.93 291.534C1193.77 290.877 1192.24 290.406 1191.16 289.767C1190.29 289.245 1190.27 288.942 1190.27 288.639C1190.27 288.017 1190.51 287.546 1191.31 287.075C1192.22 286.536 1193.6 286.216 1194.93 286.233C1196.55 286.25 1198.33 286.603 1200.18 287.108C1201.98 287.579 1203.82 286.519 1204.31 284.719C1204.79 282.918 1203.72 281.084 1201.92 280.596C1200.82 280.31 1199.61 280.024 1198.37 279.805V277.5C1198.37 275.649 1196.85 274.135 1195 274.135Z" fill="#EBC069"/>
<path d="M1290 402.577V450.986C1290 453.799 1291.75 456.455 1294.69 457.44C1309.79 462.518 1324.9 459.049 1340 455.58C1353.85 452.408 1367.71 449.22 1381.55 452.627C1385.54 453.611 1390 451.142 1390 447.408V399.014C1390 396.201 1388.25 393.545 1385.31 392.56C1370.21 387.482 1355.1 390.951 1340 394.42C1326.15 397.592 1312.29 400.764 1298.45 397.358C1294.44 396.373 1290 398.842 1290 402.577ZM1312.22 450.002H1301.11V440.001C1307.24 440.001 1312.22 444.486 1312.22 450.002ZM1301.11 420V409.999H1312.22C1312.22 415.515 1307.24 420 1301.11 420ZM1367.78 440.001C1367.78 434.485 1372.76 430 1378.89 430V440.001H1367.78ZM1378.89 409.999C1372.76 409.999 1367.78 405.514 1367.78 399.998H1378.89V409.999ZM1356.67 425C1356.67 434.672 1349.2 442.501 1340 442.501C1330.8 442.501 1323.33 434.672 1323.33 425C1323.33 415.328 1330.8 407.499 1340 407.499C1349.2 407.499 1356.67 415.328 1356.67 425ZM1333.75 417.5C1333.75 419.015 1334.95 420.265 1336.53 420.562V428.125H1335.83C1333.92 428.125 1332.36 429.532 1332.36 431.25C1332.36 432.969 1333.92 434.376 1335.83 434.376H1340H1344.17C1346.08 434.376 1347.64 432.969 1347.64 431.25C1347.64 429.532 1346.08 428.125 1344.17 428.125H1343.47V417.5C1343.47 415.781 1341.91 414.374 1340 414.374H1337.22C1335.31 414.374 1333.75 415.781 1333.75 417.5Z" fill="#88BA53"/>
<path d="M1206.9 587.93C1203.18 589.276 1199.17 590 1195 590C1190.83 590 1186.81 589.26 1183.1 587.93C1183.05 587.913 1183.02 587.897 1182.97 587.88C1177.92 586.029 1173.41 583.05 1169.74 579.231C1163.7 572.937 1160 564.406 1160 555C1160 535.666 1175.67 520 1195 520C1214.33 520 1230 535.666 1230 555C1230 564.406 1226.3 572.937 1220.26 579.231C1220.09 579.399 1219.92 579.584 1219.75 579.752C1216.15 583.353 1211.78 586.163 1206.91 587.93H1206.9ZM1195 534.135C1193.15 534.135 1191.63 535.649 1191.63 537.5V539.856C1190.36 540.142 1189.08 540.596 1187.9 541.286C1185.56 542.683 1183.54 545.123 1183.56 548.673C1183.57 552.089 1185.58 554.243 1187.71 555.522C1189.56 556.632 1191.87 557.339 1193.7 557.877L1193.99 557.962C1196.11 558.601 1197.66 559.106 1198.7 559.762C1199.56 560.3 1199.68 560.671 1199.69 561.142C1199.71 561.983 1199.39 562.488 1198.7 562.909C1197.86 563.43 1196.53 563.75 1195.1 563.7C1193.23 563.632 1191.48 563.043 1189.19 562.269C1188.81 562.135 1188.4 562 1187.98 561.865C1186.22 561.276 1184.31 562.236 1183.73 563.986C1183.14 565.736 1184.1 567.654 1185.85 568.243C1186.17 568.344 1186.52 568.462 1186.87 568.596C1188.27 569.084 1189.88 569.639 1191.62 570.01V572.5C1191.62 574.351 1193.13 575.865 1194.98 575.865C1196.83 575.865 1198.35 574.351 1198.35 572.5V570.178C1199.69 569.892 1201.04 569.421 1202.25 568.663C1204.66 567.166 1206.48 564.608 1206.43 561.091C1206.38 557.675 1204.46 555.471 1202.29 554.091C1200.35 552.88 1197.93 552.139 1196.04 551.567L1195.93 551.534C1193.77 550.877 1192.24 550.406 1191.16 549.767C1190.29 549.245 1190.27 548.942 1190.27 548.639C1190.27 548.017 1190.51 547.546 1191.31 547.075C1192.22 546.536 1193.6 546.216 1194.93 546.233C1196.55 546.25 1198.33 546.603 1200.18 547.108C1201.98 547.579 1203.82 546.519 1204.31 544.719C1204.79 542.918 1203.72 541.084 1201.92 540.596C1200.82 540.31 1199.61 540.024 1198.37 539.805V537.5C1198.37 535.649 1196.85 534.135 1195 534.135Z" fill="#EBC069"/>
<path d="M1290 662.577V710.986C1290 713.799 1291.75 716.455 1294.69 717.44C1309.79 722.518 1324.9 719.049 1340 715.58C1353.85 712.408 1367.71 709.22 1381.55 712.627C1385.54 713.611 1390 711.142 1390 707.408V659.014C1390 656.201 1388.25 653.545 1385.31 652.56C1370.21 647.482 1355.1 650.951 1340 654.42C1326.15 657.592 1312.29 660.764 1298.45 657.358C1294.44 656.373 1290 658.842 1290 662.577ZM1312.22 710.002H1301.11V700.001C1307.24 700.001 1312.22 704.486 1312.22 710.002ZM1301.11 680V669.999H1312.22C1312.22 675.515 1307.24 680 1301.11 680ZM1367.78 700.001C1367.78 694.485 1372.76 690 1378.89 690V700.001H1367.78ZM1378.89 669.999C1372.76 669.999 1367.78 665.514 1367.78 659.998H1378.89V669.999ZM1356.67 685C1356.67 694.672 1349.2 702.501 1340 702.501C1330.8 702.501 1323.33 694.672 1323.33 685C1323.33 675.328 1330.8 667.499 1340 667.499C1349.2 667.499 1356.67 675.328 1356.67 685ZM1333.75 677.5C1333.75 679.015 1334.95 680.265 1336.53 680.562V688.125H1335.83C1333.92 688.125 1332.36 689.532 1332.36 691.25C1332.36 692.969 1333.92 694.376 1335.83 694.376H1340H1344.17C1346.08 694.376 1347.64 692.969 1347.64 691.25C1347.64 689.532 1346.08 688.125 1344.17 688.125H1343.47V677.5C1343.47 675.781 1341.91 674.374 1340 674.374H1337.22C1335.31 674.374 1333.75 675.781 1333.75 677.5Z" fill="#88BA53"/>
<path d="M1206.9 847.93C1203.18 849.276 1199.17 850 1195 850C1190.83 850 1186.81 849.26 1183.1 847.93C1183.05 847.913 1183.02 847.897 1182.97 847.88C1177.92 846.029 1173.41 843.05 1169.74 839.231C1163.7 832.937 1160 824.406 1160 815C1160 795.666 1175.67 780 1195 780C1214.33 780 1230 795.666 1230 815C1230 824.406 1226.3 832.937 1220.26 839.231C1220.09 839.399 1219.92 839.584 1219.75 839.752C1216.15 843.353 1211.78 846.163 1206.91 847.93H1206.9ZM1195 794.135C1193.15 794.135 1191.63 795.649 1191.63 797.5V799.856C1190.36 800.142 1189.08 800.596 1187.9 801.286C1185.56 802.683 1183.54 805.123 1183.56 808.673C1183.57 812.089 1185.58 814.243 1187.71 815.522C1189.56 816.632 1191.87 817.339 1193.7 817.877L1193.99 817.962C1196.11 818.601 1197.66 819.106 1198.7 819.762C1199.56 820.3 1199.68 820.671 1199.69 821.142C1199.71 821.983 1199.39 822.488 1198.7 822.909C1197.86 823.43 1196.53 823.75 1195.1 823.7C1193.23 823.632 1191.48 823.043 1189.19 822.269C1188.81 822.135 1188.4 822 1187.98 821.865C1186.22 821.276 1184.31 822.236 1183.73 823.986C1183.14 825.736 1184.1 827.654 1185.85 828.243C1186.17 828.344 1186.52 828.462 1186.87 828.596C1188.27 829.084 1189.88 829.639 1191.62 830.01V832.5C1191.62 834.351 1193.13 835.865 1194.98 835.865C1196.83 835.865 1198.35 834.351 1198.35 832.5V830.178C1199.69 829.892 1201.04 829.421 1202.25 828.663C1204.66 827.166 1206.48 824.608 1206.43 821.091C1206.38 817.675 1204.46 815.471 1202.29 814.091C1200.35 812.88 1197.93 812.139 1196.04 811.567L1195.93 811.534C1193.77 810.877 1192.24 810.406 1191.16 809.767C1190.29 809.245 1190.27 808.942 1190.27 808.639C1190.27 808.017 1190.51 807.546 1191.31 807.075C1192.22 806.536 1193.6 806.216 1194.93 806.233C1196.55 806.25 1198.33 806.603 1200.18 807.108C1201.98 807.579 1203.82 806.519 1204.31 804.719C1204.79 802.918 1203.72 801.084 1201.92 800.596C1200.82 800.31 1199.61 800.024 1198.37 799.805V797.5C1198.37 795.649 1196.85 794.135 1195 794.135Z" fill="#EBC069"/>
<path d="M1290 922.577V970.986C1290 973.799 1291.75 976.455 1294.69 977.44C1309.79 982.518 1324.9 979.049 1340 975.58C1353.85 972.408 1367.71 969.22 1381.55 972.627C1385.54 973.611 1390 971.142 1390 967.408V919.014C1390 916.201 1388.25 913.545 1385.31 912.56C1370.21 907.482 1355.1 910.951 1340 914.42C1326.15 917.592 1312.29 920.764 1298.45 917.358C1294.44 916.373 1290 918.842 1290 922.577ZM1312.22 970.002H1301.11V960.001C1307.24 960.001 1312.22 964.486 1312.22 970.002ZM1301.11 940V929.999H1312.22C1312.22 935.515 1307.24 940 1301.11 940ZM1367.78 960.001C1367.78 954.485 1372.76 950 1378.89 950V960.001H1367.78ZM1378.89 929.999C1372.76 929.999 1367.78 925.514 1367.78 919.998H1378.89V929.999ZM1356.67 945C1356.67 954.672 1349.2 962.501 1340 962.501C1330.8 962.501 1323.33 954.672 1323.33 945C1323.33 935.328 1330.8 927.499 1340 927.499C1349.2 927.499 1356.67 935.328 1356.67 945ZM1333.75 937.5C1333.75 939.015 1334.95 940.265 1336.53 940.562V948.125H1335.83C1333.92 948.125 1332.36 949.532 1332.36 951.25C1332.36 952.969 1333.92 954.376 1335.83 954.376H1340H1344.17C1346.08 954.376 1347.64 952.969 1347.64 951.25C1347.64 949.532 1346.08 948.125 1344.17 948.125H1343.47V937.5C1343.47 935.781 1341.91 934.374 1340 934.374H1337.22C1335.31 934.374 1333.75 935.781 1333.75 937.5Z" fill="#88BA53"/>
<path d="M1496.9 327.93C1493.18 329.276 1489.17 330 1485 330C1480.83 330 1476.81 329.26 1473.1 327.93C1473.05 327.913 1473.02 327.897 1472.97 327.88C1467.92 326.029 1463.41 323.05 1459.74 319.231C1453.7 312.937 1450 304.406 1450 295C1450 275.666 1465.67 260 1485 260C1504.33 260 1520 275.666 1520 295C1520 304.406 1516.3 312.937 1510.26 319.231C1510.09 319.399 1509.92 319.584 1509.75 319.752C1506.15 323.353 1501.78 326.163 1496.91 327.93H1496.9ZM1485 274.135C1483.15 274.135 1481.63 275.649 1481.63 277.5V279.856C1480.36 280.142 1479.08 280.596 1477.9 281.286C1475.56 282.683 1473.54 285.123 1473.56 288.673C1473.57 292.089 1475.58 294.243 1477.71 295.522C1479.56 296.632 1481.87 297.339 1483.7 297.877L1483.99 297.962C1486.11 298.601 1487.66 299.106 1488.7 299.762C1489.56 300.3 1489.68 300.671 1489.69 301.142C1489.71 301.983 1489.39 302.488 1488.7 302.909C1487.86 303.43 1486.53 303.75 1485.1 303.7C1483.23 303.632 1481.48 303.043 1479.19 302.269C1478.81 302.135 1478.4 302 1477.98 301.865C1476.22 301.276 1474.31 302.236 1473.73 303.986C1473.14 305.736 1474.1 307.654 1475.85 308.243C1476.17 308.344 1476.52 308.462 1476.87 308.596C1478.27 309.084 1479.88 309.639 1481.62 310.01V312.5C1481.62 314.351 1483.13 315.865 1484.98 315.865C1486.83 315.865 1488.35 314.351 1488.35 312.5V310.178C1489.69 309.892 1491.04 309.421 1492.25 308.663C1494.66 307.166 1496.48 304.608 1496.43 301.091C1496.38 297.675 1494.46 295.471 1492.29 294.091C1490.35 292.88 1487.93 292.139 1486.04 291.567L1485.93 291.534C1483.77 290.877 1482.24 290.406 1481.16 289.767C1480.29 289.245 1480.27 288.942 1480.27 288.639C1480.27 288.017 1480.51 287.546 1481.31 287.075C1482.22 286.536 1483.6 286.216 1484.93 286.233C1486.55 286.25 1488.33 286.603 1490.18 287.108C1491.98 287.579 1493.82 286.519 1494.31 284.719C1494.79 282.918 1493.72 281.084 1491.92 280.596C1490.82 280.31 1489.61 280.024 1488.37 279.805V277.5C1488.37 275.649 1486.85 274.135 1485 274.135Z" fill="#EBC069"/>
<path d="M1580 402.577V450.986C1580 453.799 1581.75 456.455 1584.69 457.44C1599.79 462.518 1614.9 459.049 1630 455.58C1643.85 452.408 1657.71 449.22 1671.55 452.627C1675.54 453.611 1680 451.142 1680 447.408V399.014C1680 396.201 1678.25 393.545 1675.31 392.56C1660.21 387.482 1645.1 390.951 1630 394.42C1616.15 397.592 1602.29 400.764 1588.45 397.358C1584.44 396.373 1580 398.842 1580 402.577ZM1602.22 450.002H1591.11V440.001C1597.24 440.001 1602.22 444.486 1602.22 450.002ZM1591.11 420V409.999H1602.22C1602.22 415.515 1597.24 420 1591.11 420ZM1657.78 440.001C1657.78 434.485 1662.76 430 1668.89 430V440.001H1657.78ZM1668.89 409.999C1662.76 409.999 1657.78 405.514 1657.78 399.998H1668.89V409.999ZM1646.67 425C1646.67 434.672 1639.2 442.501 1630 442.501C1620.8 442.501 1613.33 434.672 1613.33 425C1613.33 415.328 1620.8 407.499 1630 407.499C1639.2 407.499 1646.67 415.328 1646.67 425ZM1623.75 417.5C1623.75 419.015 1624.95 420.265 1626.53 420.562V428.125H1625.83C1623.92 428.125 1622.36 429.532 1622.36 431.25C1622.36 432.969 1623.92 434.376 1625.83 434.376H1630H1634.17C1636.08 434.376 1637.64 432.969 1637.64 431.25C1637.64 429.532 1636.08 428.125 1634.17 428.125H1633.47V417.5C1633.47 415.781 1631.91 414.374 1630 414.374H1627.22C1625.31 414.374 1623.75 415.781 1623.75 417.5Z" fill="#88BA53"/>
<path d="M1496.9 587.93C1493.18 589.276 1489.17 590 1485 590C1480.83 590 1476.81 589.26 1473.1 587.93C1473.05 587.913 1473.02 587.897 1472.97 587.88C1467.92 586.029 1463.41 583.05 1459.74 579.231C1453.7 572.937 1450 564.406 1450 555C1450 535.666 1465.67 520 1485 520C1504.33 520 1520 535.666 1520 555C1520 564.406 1516.3 572.937 1510.26 579.231C1510.09 579.399 1509.92 579.584 1509.75 579.752C1506.15 583.353 1501.78 586.163 1496.91 587.93H1496.9ZM1485 534.135C1483.15 534.135 1481.63 535.649 1481.63 537.5V539.856C1480.36 540.142 1479.08 540.596 1477.9 541.286C1475.56 542.683 1473.54 545.123 1473.56 548.673C1473.57 552.089 1475.58 554.243 1477.71 555.522C1479.56 556.632 1481.87 557.339 1483.7 557.877L1483.99 557.962C1486.11 558.601 1487.66 559.106 1488.7 559.762C1489.56 560.3 1489.68 560.671 1489.69 561.142C1489.71 561.983 1489.39 562.488 1488.7 562.909C1487.86 563.43 1486.53 563.75 1485.1 563.7C1483.23 563.632 1481.48 563.043 1479.19 562.269C1478.81 562.135 1478.4 562 1477.98 561.865C1476.22 561.276 1474.31 562.236 1473.73 563.986C1473.14 565.736 1474.1 567.654 1475.85 568.243C1476.17 568.344 1476.52 568.462 1476.87 568.596C1478.27 569.084 1479.88 569.639 1481.62 570.01V572.5C1481.62 574.351 1483.13 575.865 1484.98 575.865C1486.83 575.865 1488.35 574.351 1488.35 572.5V570.178C1489.69 569.892 1491.04 569.421 1492.25 568.663C1494.66 567.166 1496.48 564.608 1496.43 561.091C1496.38 557.675 1494.46 555.471 1492.29 554.091C1490.35 552.88 1487.93 552.139 1486.04 551.567L1485.93 551.534C1483.77 550.877 1482.24 550.406 1481.16 549.767C1480.29 549.245 1480.27 548.942 1480.27 548.639C1480.27 548.017 1480.51 547.546 1481.31 547.075C1482.22 546.536 1483.6 546.216 1484.93 546.233C1486.55 546.25 1488.33 546.603 1490.18 547.108C1491.98 547.579 1493.82 546.519 1494.31 544.719C1494.79 542.918 1493.72 541.084 1491.92 540.596C1490.82 540.31 1489.61 540.024 1488.37 539.805V537.5C1488.37 535.649 1486.85 534.135 1485 534.135Z" fill="#EBC069"/>
<path d="M1580 662.577V710.986C1580 713.799 1581.75 716.455 1584.69 717.44C1599.79 722.518 1614.9 719.049 1630 715.58C1643.85 712.408 1657.71 709.22 1671.55 712.627C1675.54 713.611 1680 711.142 1680 707.408V659.014C1680 656.201 1678.25 653.545 1675.31 652.56C1660.21 647.482 1645.1 650.951 1630 654.42C1616.15 657.592 1602.29 660.764 1588.45 657.358C1584.44 656.373 1580 658.842 1580 662.577ZM1602.22 710.002H1591.11V700.001C1597.24 700.001 1602.22 704.486 1602.22 710.002ZM1591.11 680V669.999H1602.22C1602.22 675.515 1597.24 680 1591.11 680ZM1657.78 700.001C1657.78 694.485 1662.76 690 1668.89 690V700.001H1657.78ZM1668.89 669.999C1662.76 669.999 1657.78 665.514 1657.78 659.998H1668.89V669.999ZM1646.67 685C1646.67 694.672 1639.2 702.501 1630 702.501C1620.8 702.501 1613.33 694.672 1613.33 685C1613.33 675.328 1620.8 667.499 1630 667.499C1639.2 667.499 1646.67 675.328 1646.67 685ZM1623.75 677.5C1623.75 679.015 1624.95 680.265 1626.53 680.562V688.125H1625.83C1623.92 688.125 1622.36 689.532 1622.36 691.25C1622.36 692.969 1623.92 694.376 1625.83 694.376H1630H1634.17C1636.08 694.376 1637.64 692.969 1637.64 691.25C1637.64 689.532 1636.08 688.125 1634.17 688.125H1633.47V677.5C1633.47 675.781 1631.91 674.374 1630 674.374H1627.22C1625.31 674.374 1623.75 675.781 1623.75 677.5Z" fill="#88BA53"/>
<path d="M1496.9 847.93C1493.18 849.276 1489.17 850 1485 850C1480.83 850 1476.81 849.26 1473.1 847.93C1473.05 847.913 1473.02 847.897 1472.97 847.88C1467.92 846.029 1463.41 843.05 1459.74 839.231C1453.7 832.937 1450 824.406 1450 815C1450 795.666 1465.67 780 1485 780C1504.33 780 1520 795.666 1520 815C1520 824.406 1516.3 832.937 1510.26 839.231C1510.09 839.399 1509.92 839.584 1509.75 839.752C1506.15 843.353 1501.78 846.163 1496.91 847.93H1496.9ZM1485 794.135C1483.15 794.135 1481.63 795.649 1481.63 797.5V799.856C1480.36 800.142 1479.08 800.596 1477.9 801.286C1475.56 802.683 1473.54 805.123 1473.56 808.673C1473.57 812.089 1475.58 814.243 1477.71 815.522C1479.56 816.632 1481.87 817.339 1483.7 817.877L1483.99 817.962C1486.11 818.601 1487.66 819.106 1488.7 819.762C1489.56 820.3 1489.68 820.671 1489.69 821.142C1489.71 821.983 1489.39 822.488 1488.7 822.909C1487.86 823.43 1486.53 823.75 1485.1 823.7C1483.23 823.632 1481.48 823.043 1479.19 822.269C1478.81 822.135 1478.4 822 1477.98 821.865C1476.22 821.276 1474.31 822.236 1473.73 823.986C1473.14 825.736 1474.1 827.654 1475.85 828.243C1476.17 828.344 1476.52 828.462 1476.87 828.596C1478.27 829.084 1479.88 829.639 1481.62 830.01V832.5C1481.62 834.351 1483.13 835.865 1484.98 835.865C1486.83 835.865 1488.35 834.351 1488.35 832.5V830.178C1489.69 829.892 1491.04 829.421 1492.25 828.663C1494.66 827.166 1496.48 824.608 1496.43 821.091C1496.38 817.675 1494.46 815.471 1492.29 814.091C1490.35 812.88 1487.93 812.139 1486.04 811.567L1485.93 811.534C1483.77 810.877 1482.24 810.406 1481.16 809.767C1480.29 809.245 1480.27 808.942 1480.27 808.639C1480.27 808.017 1480.51 807.546 1481.31 807.075C1482.22 806.536 1483.6 806.216 1484.93 806.233C1486.55 806.25 1488.33 806.603 1490.18 807.108C1491.98 807.579 1493.82 806.519 1494.31 804.719C1494.79 802.918 1493.72 801.084 1491.92 800.596C1490.82 800.31 1489.61 800.024 1488.37 799.805V797.5C1488.37 795.649 1486.85 794.135 1485 794.135Z" fill="#EBC069"/>
<path d="M1580 922.577V970.986C1580 973.799 1581.75 976.455 1584.69 977.44C1599.79 982.518 1614.9 979.049 1630 975.58C1643.85 972.408 1657.71 969.22 1671.55 972.627C1675.54 973.611 1680 971.142 1680 967.408V919.014C1680 916.201 1678.25 913.545 1675.31 912.56C1660.21 907.482 1645.1 910.951 1630 914.42C1616.15 917.592 1602.29 920.764 1588.45 917.358C1584.44 916.373 1580 918.842 1580 922.577ZM1602.22 970.002H1591.11V960.001C1597.24 960.001 1602.22 964.486 1602.22 970.002ZM1591.11 940V929.999H1602.22C1602.22 935.515 1597.24 940 1591.11 940ZM1657.78 960.001C1657.78 954.485 1662.76 950 1668.89 950V960.001H1657.78ZM1668.89 929.999C1662.76 929.999 1657.78 925.514 1657.78 919.998H1668.89V929.999ZM1646.67 945C1646.67 954.672 1639.2 962.501 1630 962.501C1620.8 962.501 1613.33 954.672 1613.33 945C1613.33 935.328 1620.8 927.499 1630 927.499C1639.2 927.499 1646.67 935.328 1646.67 945ZM1623.75 937.5C1623.75 939.015 1624.95 940.265 1626.53 940.562V948.125H1625.83C1623.92 948.125 1622.36 949.532 1622.36 951.25C1622.36 952.969 1623.92 954.376 1625.83 954.376H1630H1634.17C1636.08 954.376 1637.64 952.969 1637.64 951.25C1637.64 949.532 1636.08 948.125 1634.17 948.125H1633.47V937.5C1633.47 935.781 1631.91 934.374 1630 934.374H1627.22C1625.31 934.374 1623.75 935.781 1623.75 937.5Z" fill="#88BA53"/>
<path d="M1786.9 327.93C1783.18 329.276 1779.17 330 1775 330C1770.83 330 1766.81 329.26 1763.1 327.93C1763.05 327.913 1763.02 327.897 1762.97 327.88C1757.92 326.029 1753.41 323.05 1749.74 319.231C1743.7 312.937 1740 304.406 1740 295C1740 275.666 1755.67 260 1775 260C1794.33 260 1810 275.666 1810 295C1810 304.406 1806.3 312.937 1800.26 319.231C1800.09 319.399 1799.92 319.584 1799.75 319.752C1796.15 323.353 1791.78 326.163 1786.91 327.93H1786.9ZM1775 274.135C1773.15 274.135 1771.63 275.649 1771.63 277.5V279.856C1770.36 280.142 1769.08 280.596 1767.9 281.286C1765.56 282.683 1763.54 285.123 1763.56 288.673C1763.57 292.089 1765.58 294.243 1767.71 295.522C1769.56 296.632 1771.87 297.339 1773.7 297.877L1773.99 297.962C1776.11 298.601 1777.66 299.106 1778.7 299.762C1779.56 300.3 1779.68 300.671 1779.69 301.142C1779.71 301.983 1779.39 302.488 1778.7 302.909C1777.86 303.43 1776.53 303.75 1775.1 303.7C1773.23 303.632 1771.48 303.043 1769.19 302.269C1768.81 302.135 1768.4 302 1767.98 301.865C1766.22 301.276 1764.31 302.236 1763.73 303.986C1763.14 305.736 1764.1 307.654 1765.85 308.243C1766.17 308.344 1766.52 308.462 1766.87 308.596C1768.27 309.084 1769.88 309.639 1771.62 310.01V312.5C1771.62 314.351 1773.13 315.865 1774.98 315.865C1776.83 315.865 1778.35 314.351 1778.35 312.5V310.178C1779.69 309.892 1781.04 309.421 1782.25 308.663C1784.66 307.166 1786.48 304.608 1786.43 301.091C1786.38 297.675 1784.46 295.471 1782.29 294.091C1780.35 292.88 1777.93 292.139 1776.04 291.567L1775.93 291.534C1773.77 290.877 1772.24 290.406 1771.16 289.767C1770.29 289.245 1770.27 288.942 1770.27 288.639C1770.27 288.017 1770.51 287.546 1771.31 287.075C1772.22 286.536 1773.6 286.216 1774.93 286.233C1776.55 286.25 1778.33 286.603 1780.18 287.108C1781.98 287.579 1783.82 286.519 1784.31 284.719C1784.79 282.918 1783.72 281.084 1781.92 280.596C1780.82 280.31 1779.61 280.024 1778.37 279.805V277.5C1778.37 275.649 1776.85 274.135 1775 274.135Z" fill="#EBC069"/>
<path d="M1870 402.577V450.986C1870 453.799 1871.75 456.455 1874.69 457.44C1889.79 462.518 1904.9 459.049 1920 455.58C1933.85 452.408 1947.71 449.22 1961.55 452.627C1965.54 453.611 1970 451.142 1970 447.408V399.014C1970 396.201 1968.25 393.545 1965.31 392.56C1950.21 387.482 1935.1 390.951 1920 394.42C1906.15 397.592 1892.29 400.764 1878.45 397.358C1874.44 396.373 1870 398.842 1870 402.577ZM1892.22 450.002H1881.11V440.001C1887.24 440.001 1892.22 444.486 1892.22 450.002ZM1881.11 420V409.999H1892.22C1892.22 415.515 1887.24 420 1881.11 420ZM1947.78 440.001C1947.78 434.485 1952.76 430 1958.89 430V440.001H1947.78ZM1958.89 409.999C1952.76 409.999 1947.78 405.514 1947.78 399.998H1958.89V409.999ZM1936.67 425C1936.67 434.672 1929.2 442.501 1920 442.501C1910.8 442.501 1903.33 434.672 1903.33 425C1903.33 415.328 1910.8 407.499 1920 407.499C1929.2 407.499 1936.67 415.328 1936.67 425ZM1913.75 417.5C1913.75 419.015 1914.95 420.265 1916.53 420.562V428.125H1915.83C1913.92 428.125 1912.36 429.532 1912.36 431.25C1912.36 432.969 1913.92 434.376 1915.83 434.376H1920H1924.17C1926.08 434.376 1927.64 432.969 1927.64 431.25C1927.64 429.532 1926.08 428.125 1924.17 428.125H1923.47V417.5C1923.47 415.781 1921.91 414.374 1920 414.374H1917.22C1915.31 414.374 1913.75 415.781 1913.75 417.5Z" fill="#88BA53"/>
<path d="M1786.9 587.93C1783.18 589.276 1779.17 590 1775 590C1770.83 590 1766.81 589.26 1763.1 587.93C1763.05 587.913 1763.02 587.897 1762.97 587.88C1757.92 586.029 1753.41 583.05 1749.74 579.231C1743.7 572.937 1740 564.406 1740 555C1740 535.666 1755.67 520 1775 520C1794.33 520 1810 535.666 1810 555C1810 564.406 1806.3 572.937 1800.26 579.231C1800.09 579.399 1799.92 579.584 1799.75 579.752C1796.15 583.353 1791.78 586.163 1786.91 587.93H1786.9ZM1775 534.135C1773.15 534.135 1771.63 535.649 1771.63 537.5V539.856C1770.36 540.142 1769.08 540.596 1767.9 541.286C1765.56 542.683 1763.54 545.123 1763.56 548.673C1763.57 552.089 1765.58 554.243 1767.71 555.522C1769.56 556.632 1771.87 557.339 1773.7 557.877L1773.99 557.962C1776.11 558.601 1777.66 559.106 1778.7 559.762C1779.56 560.3 1779.68 560.671 1779.69 561.142C1779.71 561.983 1779.39 562.488 1778.7 562.909C1777.86 563.43 1776.53 563.75 1775.1 563.7C1773.23 563.632 1771.48 563.043 1769.19 562.269C1768.81 562.135 1768.4 562 1767.98 561.865C1766.22 561.276 1764.31 562.236 1763.73 563.986C1763.14 565.736 1764.1 567.654 1765.85 568.243C1766.17 568.344 1766.52 568.462 1766.87 568.596C1768.27 569.084 1769.88 569.639 1771.62 570.01V572.5C1771.62 574.351 1773.13 575.865 1774.98 575.865C1776.83 575.865 1778.35 574.351 1778.35 572.5V570.178C1779.69 569.892 1781.04 569.421 1782.25 568.663C1784.66 567.166 1786.48 564.608 1786.43 561.091C1786.38 557.675 1784.46 555.471 1782.29 554.091C1780.35 552.88 1777.93 552.139 1776.04 551.567L1775.93 551.534C1773.77 550.877 1772.24 550.406 1771.16 549.767C1770.29 549.245 1770.27 548.942 1770.27 548.639C1770.27 548.017 1770.51 547.546 1771.31 547.075C1772.22 546.536 1773.6 546.216 1774.93 546.233C1776.55 546.25 1778.33 546.603 1780.18 547.108C1781.98 547.579 1783.82 546.519 1784.31 544.719C1784.79 542.918 1783.72 541.084 1781.92 540.596C1780.82 540.31 1779.61 540.024 1778.37 539.805V537.5C1778.37 535.649 1776.85 534.135 1775 534.135Z" fill="#EBC069"/>
<path d="M1870 662.577V710.986C1870 713.799 1871.75 716.455 1874.69 717.44C1889.79 722.518 1904.9 719.049 1920 715.58C1933.85 712.408 1947.71 709.22 1961.55 712.627C1965.54 713.611 1970 711.142 1970 707.408V659.014C1970 656.201 1968.25 653.545 1965.31 652.56C1950.21 647.482 1935.1 650.951 1920 654.42C1906.15 657.592 1892.29 660.764 1878.45 657.358C1874.44 656.373 1870 658.842 1870 662.577ZM1892.22 710.002H1881.11V700.001C1887.24 700.001 1892.22 704.486 1892.22 710.002ZM1881.11 680V669.999H1892.22C1892.22 675.515 1887.24 680 1881.11 680ZM1947.78 700.001C1947.78 694.485 1952.76 690 1958.89 690V700.001H1947.78ZM1958.89 669.999C1952.76 669.999 1947.78 665.514 1947.78 659.998H1958.89V669.999ZM1936.67 685C1936.67 694.672 1929.2 702.501 1920 702.501C1910.8 702.501 1903.33 694.672 1903.33 685C1903.33 675.328 1910.8 667.499 1920 667.499C1929.2 667.499 1936.67 675.328 1936.67 685ZM1913.75 677.5C1913.75 679.015 1914.95 680.265 1916.53 680.562V688.125H1915.83C1913.92 688.125 1912.36 689.532 1912.36 691.25C1912.36 692.969 1913.92 694.376 1915.83 694.376H1920H1924.17C1926.08 694.376 1927.64 692.969 1927.64 691.25C1927.64 689.532 1926.08 688.125 1924.17 688.125H1923.47V677.5C1923.47 675.781 1921.91 674.374 1920 674.374H1917.22C1915.31 674.374 1913.75 675.781 1913.75 677.5Z" fill="#88BA53"/>
<path d="M1786.9 847.93C1783.18 849.276 1779.17 850 1775 850C1770.83 850 1766.81 849.26 1763.1 847.93C1763.05 847.913 1763.02 847.897 1762.97 847.88C1757.92 846.029 1753.41 843.05 1749.74 839.231C1743.7 832.937 1740 824.406 1740 815C1740 795.666 1755.67 780 1775 780C1794.33 780 1810 795.666 1810 815C1810 824.406 1806.3 832.937 1800.26 839.231C1800.09 839.399 1799.92 839.584 1799.75 839.752C1796.15 843.353 1791.78 846.163 1786.91 847.93H1786.9ZM1775 794.135C1773.15 794.135 1771.63 795.649 1771.63 797.5V799.856C1770.36 800.142 1769.08 800.596 1767.9 801.286C1765.56 802.683 1763.54 805.123 1763.56 808.673C1763.57 812.089 1765.58 814.243 1767.71 815.522C1769.56 816.632 1771.87 817.339 1773.7 817.877L1773.99 817.962C1776.11 818.601 1777.66 819.106 1778.7 819.762C1779.56 820.3 1779.68 820.671 1779.69 821.142C1779.71 821.983 1779.39 822.488 1778.7 822.909C1777.86 823.43 1776.53 823.75 1775.1 823.7C1773.23 823.632 1771.48 823.043 1769.19 822.269C1768.81 822.135 1768.4 822 1767.98 821.865C1766.22 821.276 1764.31 822.236 1763.73 823.986C1763.14 825.736 1764.1 827.654 1765.85 828.243C1766.17 828.344 1766.52 828.462 1766.87 828.596C1768.27 829.084 1769.88 829.639 1771.62 830.01V832.5C1771.62 834.351 1773.13 835.865 1774.98 835.865C1776.83 835.865 1778.35 834.351 1778.35 832.5V830.178C1779.69 829.892 1781.04 829.421 1782.25 828.663C1784.66 827.166 1786.48 824.608 1786.43 821.091C1786.38 817.675 1784.46 815.471 1782.29 814.091C1780.35 812.88 1777.93 812.139 1776.04 811.567L1775.93 811.534C1773.77 810.877 1772.24 810.406 1771.16 809.767C1770.29 809.245 1770.27 808.942 1770.27 808.639C1770.27 808.017 1770.51 807.546 1771.31 807.075C1772.22 806.536 1773.6 806.216 1774.93 806.233C1776.55 806.25 1778.33 806.603 1780.18 807.108C1781.98 807.579 1783.82 806.519 1784.31 804.719C1784.79 802.918 1783.72 801.084 1781.92 800.596C1780.82 800.31 1779.61 800.024 1778.37 799.805V797.5C1778.37 795.649 1776.85 794.135 1775 794.135Z" fill="#EBC069"/>
<path d="M1870 922.577V970.986C1870 973.799 1871.75 976.455 1874.69 977.44C1889.79 982.518 1904.9 979.049 1920 975.58C1933.85 972.408 1947.71 969.22 1961.55 972.627C1965.54 973.611 1970 971.142 1970 967.408V919.014C1970 916.201 1968.25 913.545 1965.31 912.56C1950.21 907.482 1935.1 910.951 1920 914.42C1906.15 917.592 1892.29 920.764 1878.45 917.358C1874.44 916.373 1870 918.842 1870 922.577ZM1892.22 970.002H1881.11V960.001C1887.24 960.001 1892.22 964.486 1892.22 970.002ZM1881.11 940V929.999H1892.22C1892.22 935.515 1887.24 940 1881.11 940ZM1947.78 960.001C1947.78 954.485 1952.76 950 1958.89 950V960.001H1947.78ZM1958.89 929.999C1952.76 929.999 1947.78 925.514 1947.78 919.998H1958.89V929.999ZM1936.67 945C1936.67 954.672 1929.2 962.501 1920 962.501C1910.8 962.501 1903.33 954.672 1903.33 945C1903.33 935.328 1910.8 927.499 1920 927.499C1929.2 927.499 1936.67 935.328 1936.67 945ZM1913.75 937.5C1913.75 939.015 1914.95 940.265 1916.53 940.562V948.125H1915.83C1913.92 948.125 1912.36 949.532 1912.36 951.25C1912.36 952.969 1913.92 954.376 1915.83 954.376H1920H1924.17C1926.08 954.376 1927.64 952.969 1927.64 951.25C1927.64 949.532 1926.08 948.125 1924.17 948.125H1923.47V937.5C1923.47 935.781 1921.91 934.374 1920 934.374H1917.22C1915.31 934.374 1913.75 935.781 1913.75 937.5Z" fill="#88BA53"/>
</svg>
