<svg width="17" height="15" viewBox="0 0 17 15" fill="none" xmlns="http://www.w3.org/2000/svg">
<path d="M1.64551 0.407104C1.22988 0.407104 0.895508 0.741479 0.895508 1.1571V13.6571C0.895508 14.0727 1.22988 14.4071 1.64551 14.4071H2.14551C2.56113 14.4071 2.89551 14.0727 2.89551 13.6571V1.1571C2.89551 0.741479 2.56113 0.407104 2.14551 0.407104H1.64551ZM4.39551 0.407104C4.12051 0.407104 3.89551 0.632104 3.89551 0.907104V13.9071C3.89551 14.1821 4.12051 14.4071 4.39551 14.4071C4.67051 14.4071 4.89551 14.1821 4.89551 13.9071V0.907104C4.89551 0.632104 4.67051 0.407104 4.39551 0.407104ZM6.64551 0.407104C6.22988 0.407104 5.89551 0.741479 5.89551 1.1571V13.6571C5.89551 14.0727 6.22988 14.4071 6.64551 14.4071H7.14551C7.56113 14.4071 7.89551 14.0727 7.89551 13.6571V1.1571C7.89551 0.741479 7.56113 0.407104 7.14551 0.407104H6.64551ZM9.64551 0.407104C9.22988 0.407104 8.89551 0.741479 8.89551 1.1571V13.6571C8.89551 14.0727 9.22988 14.4071 9.64551 14.4071H10.1455C10.5611 14.4071 10.8955 14.0727 10.8955 13.6571V1.1571C10.8955 0.741479 10.5611 0.407104 10.1455 0.407104H9.64551ZM14.8955 1.1571V13.6571C14.8955 14.0727 15.2299 14.4071 15.6455 14.4071H16.1455C16.5611 14.4071 16.8955 14.0727 16.8955 13.6571V1.1571C16.8955 0.741479 16.5611 0.407104 16.1455 0.407104H15.6455C15.2299 0.407104 14.8955 0.741479 14.8955 1.1571ZM12.8955 0.907104V13.9071C12.8955 14.1821 13.1205 14.4071 13.3955 14.4071C13.6705 14.4071 13.8955 14.1821 13.8955 13.9071V0.907104C13.8955 0.632104 13.6705 0.407104 13.3955 0.407104C13.1205 0.407104 12.8955 0.632104 12.8955 0.907104Z" fill="#222222"/>
</svg>
