<svg width="17" height="19" viewBox="0 0 17 19" fill="none" xmlns="http://www.w3.org/2000/svg">
<path d="M5.65611 1.11972C5.65611 0.644716 5.27397 0.262573 4.79897 0.262573C4.32397 0.262573 3.94182 0.644716 3.94182 1.11972V2.54829H2.51325C1.25254 2.54829 0.227539 3.57329 0.227539 4.834V5.40543V7.11972V16.2626C0.227539 17.5233 1.25254 18.5483 2.51325 18.5483H13.9418C15.2025 18.5483 16.2275 17.5233 16.2275 16.2626V7.11972V5.40543V4.834C16.2275 3.57329 15.2025 2.54829 13.9418 2.54829H12.5133V1.11972C12.5133 0.644716 12.1311 0.262573 11.6561 0.262573C11.1811 0.262573 10.799 0.644716 10.799 1.11972V2.54829H5.65611V1.11972ZM1.94182 7.11972H14.5133V16.2626C14.5133 16.5769 14.2561 16.834 13.9418 16.834H2.51325C2.19897 16.834 1.94182 16.5769 1.94182 16.2626V7.11972Z" fill="#222222"/>
</svg>
