<svg width="31" height="25" viewBox="0 0 31 25" fill="none" xmlns="http://www.w3.org/2000/svg">
<path d="M4.22884 0.740723C2.3903 0.740723 0.895508 2.23551 0.895508 4.07406V5.74072H30.8955V4.07406C30.8955 2.23551 29.4007 0.740723 27.5622 0.740723H4.22884ZM30.8955 10.7407H0.895508V20.7407C0.895508 22.5793 2.3903 24.0741 4.22884 24.0741H27.5622C29.4007 24.0741 30.8955 22.5793 30.8955 20.7407V10.7407ZM6.72884 17.4074H10.0622C10.5205 17.4074 10.8955 17.7824 10.8955 18.2407C10.8955 18.6991 10.5205 19.0741 10.0622 19.0741H6.72884C6.27051 19.0741 5.89551 18.6991 5.89551 18.2407C5.89551 17.7824 6.27051 17.4074 6.72884 17.4074ZM12.5622 18.2407C12.5622 17.7824 12.9372 17.4074 13.3955 17.4074H20.0622C20.5205 17.4074 20.8955 17.7824 20.8955 18.2407C20.8955 18.6991 20.5205 19.0741 20.0622 19.0741H13.3955C12.9372 19.0741 12.5622 18.6991 12.5622 18.2407Z" fill="#222222"/>
</svg>
