<svg width="20" height="21" viewBox="0 0 20 21" fill="none" xmlns="http://www.w3.org/2000/svg">
<path d="M2.5 0.407104C1.80859 0.407104 1.25 0.965698 1.25 1.6571V4.1571C1.25 4.84851 1.80859 5.4071 2.5 5.4071H5.625V6.6571H3.39844C2.16406 6.6571 1.11328 7.55945 0.925781 8.7821L0.0429688 14.6298C0.015625 14.8134 0 15.0009 0 15.1884V17.9071C0 19.286 1.12109 20.4071 2.5 20.4071H17.5C18.8789 20.4071 20 19.286 20 17.9071V15.1884C20 15.0009 19.9844 14.8134 19.957 14.6259L19.0703 8.7821C18.8867 7.55945 17.8359 6.6571 16.6016 6.6571H8.125V5.4071H11.25C11.9414 5.4071 12.5 4.84851 12.5 4.1571V1.6571C12.5 0.965698 11.9414 0.407104 11.25 0.407104H2.5ZM3.75 2.2821H10C10.3438 2.2821 10.625 2.56335 10.625 2.9071C10.625 3.25085 10.3438 3.5321 10 3.5321H3.75C3.40625 3.5321 3.125 3.25085 3.125 2.9071C3.125 2.56335 3.40625 2.2821 3.75 2.2821ZM2.5 17.2821C2.5 16.9384 2.78125 16.6571 3.125 16.6571H16.875C17.2188 16.6571 17.5 16.9384 17.5 17.2821C17.5 17.6259 17.2188 17.9071 16.875 17.9071H3.125C2.78125 17.9071 2.5 17.6259 2.5 17.2821ZM4.375 10.7196C4.12636 10.7196 3.8879 10.6208 3.71209 10.445C3.53627 10.2692 3.4375 10.0307 3.4375 9.7821C3.4375 9.53346 3.53627 9.29501 3.71209 9.11919C3.8879 8.94338 4.12636 8.8446 4.375 8.8446C4.62364 8.8446 4.8621 8.94338 5.03791 9.11919C5.21373 9.29501 5.3125 9.53346 5.3125 9.7821C5.3125 10.0307 5.21373 10.2692 5.03791 10.445C4.8621 10.6208 4.62364 10.7196 4.375 10.7196ZM9.0625 9.7821C9.0625 10.0307 8.96373 10.2692 8.78791 10.445C8.6121 10.6208 8.37364 10.7196 8.125 10.7196C7.87636 10.7196 7.6379 10.6208 7.46209 10.445C7.28627 10.2692 7.1875 10.0307 7.1875 9.7821C7.1875 9.53346 7.28627 9.29501 7.46209 9.11919C7.6379 8.94338 7.87636 8.8446 8.125 8.8446C8.37364 8.8446 8.6121 8.94338 8.78791 9.11919C8.96373 9.29501 9.0625 9.53346 9.0625 9.7821ZM6.25 13.8446C6.00136 13.8446 5.7629 13.7458 5.58709 13.57C5.41127 13.3942 5.3125 13.1557 5.3125 12.9071C5.3125 12.6585 5.41127 12.42 5.58709 12.2442C5.7629 12.0684 6.00136 11.9696 6.25 11.9696C6.49864 11.9696 6.7371 12.0684 6.91291 12.2442C7.08873 12.42 7.1875 12.6585 7.1875 12.9071C7.1875 13.1557 7.08873 13.3942 6.91291 13.57C6.7371 13.7458 6.49864 13.8446 6.25 13.8446ZM12.8125 9.7821C12.8125 10.0307 12.7137 10.2692 12.5379 10.445C12.3621 10.6208 12.1236 10.7196 11.875 10.7196C11.6264 10.7196 11.3879 10.6208 11.2121 10.445C11.0363 10.2692 10.9375 10.0307 10.9375 9.7821C10.9375 9.53346 11.0363 9.29501 11.2121 9.11919C11.3879 8.94338 11.6264 8.8446 11.875 8.8446C12.1236 8.8446 12.3621 8.94338 12.5379 9.11919C12.7137 9.29501 12.8125 9.53346 12.8125 9.7821ZM10 13.8446C9.75136 13.8446 9.5129 13.7458 9.33709 13.57C9.16127 13.3942 9.0625 13.1557 9.0625 12.9071C9.0625 12.6585 9.16127 12.42 9.33709 12.2442C9.5129 12.0684 9.75136 11.9696 10 11.9696C10.2486 11.9696 10.4871 12.0684 10.6629 12.2442C10.8387 12.42 10.9375 12.6585 10.9375 12.9071C10.9375 13.1557 10.8387 13.3942 10.6629 13.57C10.4871 13.7458 10.2486 13.8446 10 13.8446ZM16.5625 9.7821C16.5625 9.90522 16.5383 10.0271 16.4911 10.1409C16.444 10.2546 16.375 10.358 16.2879 10.445C16.2009 10.5321 16.0975 10.6011 15.9838 10.6482C15.87 10.6954 15.7481 10.7196 15.625 10.7196C15.5019 10.7196 15.38 10.6954 15.2662 10.6482C15.1525 10.6011 15.0491 10.5321 14.9621 10.445C14.875 10.358 14.806 10.2546 14.7589 10.1409C14.7117 10.0271 14.6875 9.90522 14.6875 9.7821C14.6875 9.65899 14.7117 9.53708 14.7589 9.42334C14.806 9.3096 14.875 9.20625 14.9621 9.11919C15.0491 9.03214 15.1525 8.96308 15.2662 8.91597C15.38 8.86885 15.5019 8.8446 15.625 8.8446C15.7481 8.8446 15.87 8.86885 15.9838 8.91597C16.0975 8.96308 16.2009 9.03214 16.2879 9.11919C16.375 9.20625 16.444 9.3096 16.4911 9.42334C16.5383 9.53708 16.5625 9.65899 16.5625 9.7821ZM13.75 13.8446C13.5014 13.8446 13.2629 13.7458 13.0871 13.57C12.9113 13.3942 12.8125 13.1557 12.8125 12.9071C12.8125 12.6585 12.9113 12.42 13.0871 12.2442C13.2629 12.0684 13.5014 11.9696 13.75 11.9696C13.9986 11.9696 14.2371 12.0684 14.4129 12.2442C14.5887 12.42 14.6875 12.6585 14.6875 12.9071C14.6875 13.1557 14.5887 13.3942 14.4129 13.57C14.2371 13.7458 13.9986 13.8446 13.75 13.8446Z" fill="#AAAAAA"/>
</svg>
