<svg width="112" height="55" viewBox="0 0 112 55" fill="none" xmlns="http://www.w3.org/2000/svg">
<g filter="url(#filter0_d_330_189)">
<path d="M30 12.1867V39.8492C30 41.4564 30.9018 42.9744 32.4109 43.5369C40.1792 46.4389 47.9476 44.4566 55.7159 42.4743C62.8414 40.6617 69.9668 38.8402 77.0834 40.7867C79.1371 41.3493 81.4319 39.9385 81.4319 37.8044V10.1508C81.4319 8.54359 80.53 7.02563 79.021 6.4631C71.2526 3.56112 63.4843 5.54339 55.7159 7.52566C48.5905 9.33828 41.465 11.1509 34.3485 9.20434C32.2859 8.64181 30 10.0526 30 12.1867ZM41.4293 39.2866H35.7147V33.572C38.8666 33.572 41.4293 36.1346 41.4293 39.2866ZM35.7147 22.1427V16.428H41.4293C41.4293 19.58 38.8666 22.1427 35.7147 22.1427ZM70.0026 33.572C70.0026 30.42 72.5652 27.8573 75.7172 27.8573V33.572H70.0026ZM75.7172 16.428C72.5652 16.428 70.0026 13.8654 70.0026 10.7134H75.7172V16.428ZM64.2879 25C64.2879 30.5271 60.4484 35.0006 55.7159 35.0006C50.9835 35.0006 47.144 30.5271 47.144 25C47.144 19.4729 50.9835 14.9994 55.7159 14.9994C60.4484 14.9994 64.2879 19.4729 64.2879 25ZM52.5014 20.714C52.5014 21.5801 53.1176 22.2945 53.9301 22.4641V26.7858H53.5729C52.5907 26.7858 51.7871 27.5895 51.7871 28.5717C51.7871 29.5539 52.5907 30.3575 53.5729 30.3575H55.7159H57.8589C58.8411 30.3575 59.6448 29.5539 59.6448 28.5717C59.6448 27.5895 58.8411 26.7858 57.8589 26.7858H57.5018V20.714C57.5018 19.7318 56.6981 18.9282 55.7159 18.9282H54.2873C53.3051 18.9282 52.5014 19.7318 52.5014 20.714Z" fill="#88BA53"/>
<path d="M35.0063 6.79243L35.0081 6.79292C41.381 8.53608 47.8485 6.9474 55.0987 5.10305C55.2001 5.07719 55.3015 5.05129 55.4032 5.02534C62.9531 3.09782 71.3892 0.944069 79.8943 4.12057L35.0063 6.79243ZM35.0063 6.79243C31.7192 5.89596 27.5 8.04395 27.5 12.1867V39.8492C27.5 42.3322 28.9018 44.8969 31.5376 45.8794M35.0063 6.79243L31.5376 45.8794M31.5376 45.8794C40.0426 49.0559 48.4787 46.9022 56.0287 44.9747C56.1306 44.9486 56.2324 44.9226 56.3341 44.8967C63.5866 43.0518 70.0516 41.4555 76.4229 43.1979C79.7012 44.0959 83.9319 41.9489 83.9319 37.8044V10.1508C83.9319 7.66826 82.5306 5.10418 79.8959 4.12117L31.5376 45.8794ZM61.7879 25C61.7879 25.5525 61.7421 26.082 61.6562 26.5858C61.2786 25.8668 60.7027 25.2675 60.0018 24.8611V20.714C60.0018 20.2899 59.9398 19.88 59.8245 19.4929C60.9968 20.8055 61.7879 22.704 61.7879 25ZM49.7757 26.5858C49.6898 26.082 49.644 25.5525 49.644 25C49.644 23.8678 49.8363 22.8323 50.1719 21.916C50.3995 22.697 50.8432 23.3811 51.4301 23.9055V24.8611C50.7291 25.2675 50.1533 25.8668 49.7757 26.5858Z" stroke="#404040" stroke-width="5"/>
</g>
<defs>
<filter id="filter0_d_330_189" x="25" y="0.00463867" width="61.4319" height="54.9907" filterUnits="userSpaceOnUse" color-interpolation-filters="sRGB">
<feFlood flood-opacity="0" result="BackgroundImageFix"/>
<feColorMatrix in="SourceAlpha" type="matrix" values="0 0 0 0 0 0 0 0 0 0 0 0 0 0 0 0 0 0 127 0" result="hardAlpha"/>
<feOffset dy="5"/>
<feComposite in2="hardAlpha" operator="out"/>
<feColorMatrix type="matrix" values="0 0 0 0 0.25098 0 0 0 0 0.25098 0 0 0 0 0.25098 0 0 0 1 0"/>
<feBlend mode="normal" in2="BackgroundImageFix" result="effect1_dropShadow_330_189"/>
<feBlend mode="normal" in="SourceGraphic" in2="effect1_dropShadow_330_189" result="shape"/>
</filter>
</defs>
</svg>
