<svg width="100" height="40" viewBox="0 0 100 40" fill="none" xmlns="http://www.w3.org/2000/svg">
<g clip-path="url(#clip0_330_191)">
<path d="M55.5234 31.5391C53.7969 32.1641 51.9375 32.5 50 32.5C48.0625 32.5 46.1953 32.1563 44.4766 31.5391C44.4531 31.5313 44.4375 31.5234 44.4141 31.5156C42.0703 30.6562 39.9766 29.2734 38.2734 27.5C35.4688 24.5781 33.75 20.6172 33.75 16.25C33.75 7.27344 41.0234 0 50 0C58.9766 0 66.25 7.27344 66.25 16.25C66.25 20.6172 64.5313 24.5781 61.7266 27.5C61.6484 27.5781 61.5703 27.6641 61.4922 27.7422C59.8203 29.4141 57.7891 30.7188 55.5312 31.5391H55.5234ZM50 6.5625C49.1406 6.5625 48.4375 7.26562 48.4375 8.125V9.21875C47.8438 9.35156 47.25 9.5625 46.7031 9.88281C45.6172 10.5313 44.6797 11.6641 44.6875 13.3125C44.6953 14.8984 45.625 15.8984 46.6172 16.4922C47.4766 17.0078 48.5469 17.3359 49.3984 17.5859L49.5312 17.625C50.5156 17.9219 51.2344 18.1563 51.7188 18.4609C52.1172 18.7109 52.1719 18.8828 52.1797 19.1016C52.1875 19.4922 52.0391 19.7266 51.7188 19.9219C51.3281 20.1641 50.7109 20.3125 50.0469 20.2891C49.1797 20.2578 48.3672 19.9844 47.3047 19.625C47.125 19.5625 46.9375 19.5 46.7422 19.4375C45.9219 19.1641 45.0391 19.6094 44.7656 20.4219C44.4922 21.2344 44.9375 22.125 45.75 22.3984C45.8984 22.4453 46.0625 22.5 46.2266 22.5625C46.875 22.7891 47.625 23.0469 48.4297 23.2188V24.375C48.4297 25.2344 49.1328 25.9375 49.9922 25.9375C50.8516 25.9375 51.5547 25.2344 51.5547 24.375V23.2969C52.1797 23.1641 52.8047 22.9453 53.3672 22.5938C54.4844 21.8984 55.3281 20.7109 55.3047 19.0781C55.2812 17.4922 54.3906 16.4688 53.3828 15.8281C52.4844 15.2656 51.3594 14.9219 50.4844 14.6563L50.4297 14.6406C49.4297 14.3359 48.7187 14.1172 48.2187 13.8203C47.8125 13.5781 47.8047 13.4375 47.8047 13.2969C47.8047 13.0078 47.9141 12.7891 48.2891 12.5703C48.7109 12.3203 49.3516 12.1719 49.9688 12.1797C50.7188 12.1875 51.5469 12.3516 52.4062 12.5859C53.2422 12.8047 54.0937 12.3125 54.3203 11.4766C54.5469 10.6406 54.0469 9.78906 53.2109 9.5625C52.7031 9.42969 52.1406 9.29687 51.5625 9.19531V8.125C51.5625 7.26562 50.8594 6.5625 50 6.5625ZM33.75 27.5H35C36.5234 29.5234 38.4375 31.2266 40.6406 32.5H35V35H50H65V32.5H59.3594C61.5625 31.2266 63.4844 29.5234 65 27.5H66.25C68.3203 27.5 70 29.1797 70 31.25V36.25C70 38.3203 68.3203 40 66.25 40H33.75C31.6797 40 30 38.3203 30 36.25V31.25C30 29.1797 31.6797 27.5 33.75 27.5Z" fill="#404040"/>
</g>
<defs>
<clipPath id="clip0_330_191">
<rect width="40" height="40" fill="white" transform="translate(30)"/>
</clipPath>
</defs>
</svg>
