<svg width="31" height="31" viewBox="0 0 31 31" fill="none" xmlns="http://www.w3.org/2000/svg">
<path d="M28.0623 26.2389V30.7389H3.06226V26.2389H28.0623ZM28.0623 3.73889C26.1873 3.73889 24.7348 6.26639 26.0648 8.52989C26.7335 9.66839 26.5723 10.3539 26.121 11.1534C25.1648 12.8439 23.781 14.2389 21.8123 14.2389C18.661 14.2389 16.9948 11.1144 16.6485 8.46689C16.5285 7.54589 16.461 6.85589 17.1935 6.00089C17.696 5.41589 18.0623 4.64489 18.0623 3.73889C18.0623 2.08289 16.9423 0.738892 15.5623 0.738892C14.1823 0.738892 13.0623 2.08289 13.0623 3.73889C13.0623 4.64489 13.4285 5.41589 13.931 6.00089C14.6635 6.85589 14.5948 7.54589 14.476 8.46689C14.1298 11.1144 12.4635 14.2389 9.31226 14.2389C7.34351 14.2389 5.95976 12.8439 5.00351 11.1519C4.55101 10.3539 4.38976 9.66839 5.05976 8.52989C6.38976 6.26639 4.93726 3.73889 3.06226 3.73889C1.68226 3.73889 0.562256 5.08289 0.562256 6.73889C0.562256 7.93439 1.14226 8.98139 1.99226 9.45089C3.02351 10.0209 3.06226 11.4264 3.06226 12.7074V23.2389H28.0623V12.7074C28.0623 11.4264 28.101 10.0194 29.1323 9.45089C29.9823 8.98139 30.5623 7.93439 30.5623 6.73889C30.5623 5.08289 29.4423 3.73889 28.0623 3.73889Z" fill="#EBC069"/>
</svg>
