<svg width="150" height="102" viewBox="0 0 150 102" fill="none" xmlns="http://www.w3.org/2000/svg">
<path d="M122.03 91.1395C117.528 92.7692 112.679 93.6452 107.627 93.6452C102.575 93.6452 97.7063 92.7488 93.2246 91.1395C93.1635 91.1191 93.1227 91.0987 93.0616 91.0784C86.9501 88.8375 81.4905 85.2317 77.0495 80.6074C69.7361 72.9884 65.2544 62.66 65.2544 51.2723C65.2544 27.8654 84.2203 8.89941 107.627 8.89941C131.034 8.89941 150 27.8654 150 51.2723C150 62.66 145.518 72.9884 138.205 80.6074C138.001 80.8111 137.798 81.0352 137.594 81.2389C133.234 85.5984 127.938 89.0005 122.05 91.1395H122.03ZM107.627 26.0115C105.386 26.0115 103.553 27.845 103.553 30.0859V32.9379C102.005 33.2842 100.456 33.8342 99.0305 34.6695C96.1988 36.3603 93.7542 39.3142 93.7746 43.6126C93.795 47.748 96.2192 50.3556 98.8064 51.9038C101.047 53.2483 103.838 54.1039 106.059 54.7558L106.405 54.8577C108.972 55.6318 110.846 56.243 112.109 57.0375C113.148 57.6893 113.291 58.1375 113.311 58.7079C113.331 59.7265 112.944 60.3376 112.109 60.8469C111.09 61.4785 109.481 61.8655 107.75 61.8044C105.488 61.7229 103.37 61.0099 100.599 60.0728C100.131 59.9098 99.6416 59.7469 99.1323 59.5839C96.9933 58.8709 94.6913 60.0321 93.9783 62.1507C93.2653 64.2694 94.4265 66.5917 96.5451 67.3047C96.9322 67.427 97.36 67.5696 97.7878 67.7325C99.4787 68.3233 101.434 68.9956 103.533 69.4437V72.4587C103.533 74.6996 105.366 76.5331 107.607 76.5331C109.848 76.5331 111.681 74.6996 111.681 72.4587V69.6475C113.311 69.3011 114.941 68.7307 116.407 67.814C119.321 66.0009 121.521 62.9045 121.46 58.6468C121.398 54.5114 119.076 51.8427 116.448 50.1722C114.105 48.7055 111.172 47.8091 108.89 47.1165L108.748 47.0758C106.14 46.2813 104.286 45.7109 102.983 44.9367C101.923 44.3052 101.903 43.9385 101.903 43.5718C101.903 42.8181 102.188 42.2477 103.166 41.6773C104.266 41.0254 105.936 40.6383 107.546 40.6587C109.501 40.6791 111.661 41.1069 113.902 41.718C116.081 42.2884 118.302 41.005 118.893 38.8253C119.484 36.6455 118.18 34.425 116 33.8342C114.676 33.4879 113.209 33.1416 111.702 32.8768V30.0859C111.702 27.845 109.868 26.0115 107.627 26.0115Z" fill="#EBC069"/>
<path d="M101.695 50.8475C101.695 78.9297 78.9298 101.695 50.8475 101.695C22.7652 101.695 0 78.9297 0 50.8475C0 22.7652 22.7652 0 50.8475 0C78.9298 0 101.695 22.7652 101.695 50.8475Z" fill="#FCFCFC"/>
<path d="M74.6823 75.2686V55.7208C74.6823 53.5194 72.9112 51.7483 70.7098 51.7483C68.5084 51.7483 66.7373 53.5194 66.7373 55.7208V80.979C61.9869 83.4618 56.5745 84.8521 50.8475 84.8521C45.1205 84.8521 39.7081 83.4452 34.9577 80.979V55.7208C34.9577 53.5194 33.1866 51.7483 30.9852 51.7483C28.7838 51.7483 27.0128 53.5194 27.0128 55.7208V75.2686C20.4913 68.9954 16.4195 60.1898 16.4195 50.4242C16.4195 31.406 31.8294 15.9962 50.8475 15.9962C69.8657 15.9962 85.2755 31.406 85.2755 50.4242C85.2755 60.1898 81.2037 68.9954 74.6823 75.2686ZM50.8475 92.797C62.0855 92.797 72.8632 88.3328 80.8097 80.3863C88.7561 72.4398 93.2204 61.6621 93.2204 50.4242C93.2204 39.1862 88.7561 28.4085 80.8097 20.462C72.8632 12.5155 62.0855 8.05127 50.8475 8.05127C39.6095 8.05127 28.8318 12.5155 20.8853 20.462C12.9389 28.4085 8.47461 39.1862 8.47461 50.4242C8.47461 61.6621 12.9389 72.4398 20.8853 80.3863C28.8318 88.3328 39.6095 92.797 50.8475 92.797ZM34.8915 44.4655C36.646 44.4655 38.1853 45.0944 39.0956 46.071C40.3536 47.4117 42.4391 47.4779 43.7798 46.22C45.1205 44.962 45.1867 42.8765 43.9288 41.5358C41.5288 38.9702 38.1025 37.8447 34.8915 37.8447C31.6804 37.8447 28.2541 38.9702 25.8541 41.5358C24.5962 42.8765 24.6789 44.962 26.0031 46.22C27.3272 47.4779 29.4293 47.3952 30.6873 46.071C31.5976 45.111 33.137 44.4655 34.8915 44.4655ZM62.4669 46.071C63.3773 45.111 64.9166 44.4655 66.6711 44.4655C68.4256 44.4655 69.965 45.0944 70.8753 46.071C72.1333 47.4117 74.2188 47.4779 75.5595 46.22C76.9002 44.962 76.9664 42.8765 75.7085 41.5358C73.3084 38.9702 69.8822 37.8447 66.6711 37.8447C63.4601 37.8447 60.0338 38.9702 57.6338 41.5358C56.3758 42.8765 56.4586 44.962 57.7828 46.22C59.1069 47.4779 61.209 47.3952 62.4669 46.071ZM42.9026 61.0174V66.314C42.9026 70.7002 46.4612 74.2589 50.8475 74.2589C55.2338 74.2589 58.7924 70.7002 58.7924 66.314V61.0174C58.7924 56.6311 55.2338 53.0725 50.8475 53.0725C46.4612 53.0725 42.9026 56.6311 42.9026 61.0174Z" fill="#88BA53"/>
</svg>
