<svg width="706" height="202" viewBox="0 0 706 202" fill="none" xmlns="http://www.w3.org/2000/svg">
<path d="M312.562 101.979C312.562 157.207 267.79 201.979 212.562 201.979C157.333 201.979 112.562 157.207 112.562 101.979C112.562 46.7502 157.333 1.97864 212.562 1.97864C267.79 1.97864 312.562 46.7502 312.562 101.979Z" fill="#FCFCFC"/>
<path d="M240.554 180.219C231.7 183.424 222.165 185.147 212.229 185.147C202.293 185.147 192.718 183.384 183.904 180.219C183.783 180.179 183.703 180.139 183.583 180.099C171.564 175.692 160.827 168.6 152.093 159.506C137.71 144.522 128.896 124.209 128.896 101.813C128.896 55.7797 166.195 18.48 212.229 18.48C258.263 18.48 295.562 55.7797 295.562 101.813C295.562 124.209 286.748 144.522 272.365 159.506C271.964 159.906 271.564 160.347 271.163 160.748C262.589 169.321 252.173 176.012 240.594 180.219H240.554ZM212.229 52.1338C207.822 52.1338 204.216 55.7396 204.216 60.1466V65.7556C201.171 66.4367 198.126 67.5184 195.322 69.1611C189.753 72.4864 184.945 78.2957 184.985 86.7492C185.025 94.8822 189.793 100.01 194.881 103.055C199.288 105.7 204.777 107.382 209.144 108.664L209.825 108.865C214.873 110.387 218.559 111.589 221.043 113.151C223.086 114.434 223.367 115.315 223.407 116.437C223.447 118.44 222.686 119.642 221.043 120.643C219.04 121.885 215.875 122.647 212.469 122.526C208.022 122.366 203.855 120.964 198.407 119.121C197.485 118.8 196.524 118.48 195.522 118.159C191.315 116.757 186.788 119.041 185.386 123.208C183.984 127.374 186.267 131.942 190.434 133.344C191.195 133.584 192.037 133.865 192.878 134.185C196.203 135.347 200.049 136.669 204.176 137.55V143.48C204.176 147.887 207.782 151.493 212.189 151.493C216.596 151.493 220.202 147.887 220.202 143.48V137.951C223.407 137.27 226.612 136.148 229.496 134.345C235.226 130.78 239.553 124.69 239.432 116.317C239.312 108.184 234.745 102.935 229.577 99.6498C224.969 96.7652 219.2 95.0024 214.713 93.6402L214.432 93.5601C209.304 91.9976 205.658 90.8758 203.094 89.3534C201.011 88.1114 200.971 87.3902 200.971 86.6691C200.971 85.1867 201.532 84.0649 203.455 82.9431C205.618 81.6611 208.904 80.8998 212.069 80.9399C215.915 80.98 220.162 81.8213 224.569 83.0232C228.855 84.145 233.222 81.621 234.384 77.3341C235.546 73.0473 232.982 68.6803 228.695 67.5184C226.091 66.8373 223.206 66.1563 220.242 65.6354V60.1466C220.242 55.7396 216.636 52.1338 212.229 52.1338Z" fill="#EBC069"/>
<path d="M200.562 100.979C200.562 156.207 155.79 200.979 100.562 200.979C45.3331 200.979 0.561523 156.207 0.561523 100.979C0.561523 45.7502 45.3331 0.978638 100.562 0.978638C155.79 0.978638 200.562 45.7502 200.562 100.979Z" fill="#FCFCFC"/>
<path d="M147.436 149.006V110.562C147.436 106.232 143.953 102.749 139.623 102.749C135.294 102.749 131.811 106.232 131.811 110.562V160.236C122.468 165.119 111.824 167.853 100.561 167.853C89.2979 167.853 78.6533 165.086 69.3109 160.236V110.562C69.3109 106.232 65.8278 102.749 61.4984 102.749C57.1689 102.749 53.6859 106.232 53.6859 110.562V149.006C40.8604 136.669 32.8525 119.351 32.8525 100.145C32.8525 62.7428 63.1585 32.4368 100.561 32.4368C137.963 32.4368 168.269 62.7428 168.269 100.145C168.269 119.351 160.261 136.669 147.436 149.006ZM100.561 183.478C122.662 183.478 143.858 174.699 159.486 159.071C175.114 143.443 183.894 122.246 183.894 100.145C183.894 78.0437 175.114 56.8476 159.486 41.2195C143.858 25.5915 122.662 16.8118 100.561 16.8118C78.4595 16.8118 57.2633 25.5915 41.6353 41.2195C26.0073 56.8476 17.2275 78.0437 17.2275 100.145C17.2275 122.246 26.0073 143.443 41.6353 159.071C57.2633 174.699 78.4595 183.478 100.561 183.478ZM69.1807 88.4263C72.6312 88.4263 75.6585 89.6633 77.4489 91.5839C79.9229 94.2206 84.0244 94.3508 86.6611 91.8769C89.2979 89.4029 89.4281 85.3013 86.9541 82.6646C82.2341 77.6191 75.4958 75.4055 69.1807 75.4055C62.8656 75.4055 56.1273 77.6191 51.4072 82.6646C48.9333 85.3013 49.096 89.4029 51.7002 91.8769C54.3044 94.3508 58.4385 94.1881 60.9124 91.5839C62.7028 89.6959 65.7301 88.4263 69.1807 88.4263ZM123.412 91.5839C125.203 89.6959 128.23 88.4263 131.681 88.4263C135.131 88.4263 138.159 89.6633 139.949 91.5839C142.423 94.2206 146.524 94.3508 149.161 91.8769C151.798 89.4029 151.928 85.3013 149.454 82.6646C144.734 77.6191 137.996 75.4055 131.681 75.4055C125.366 75.4055 118.627 77.6191 113.907 82.6646C111.433 85.3013 111.596 89.4029 114.2 91.8769C116.804 94.3508 120.938 94.1881 123.412 91.5839ZM84.9359 120.978V131.395C84.9359 140.021 91.9346 147.02 100.561 147.02C109.187 147.02 116.186 140.021 116.186 131.395V120.978C116.186 112.352 109.187 105.353 100.561 105.353C91.9346 105.353 84.9359 112.352 84.9359 120.978Z" fill="#88BA53"/>
<path d="M328.896 74.3136H344.195V133.233H328.896V74.3136ZM344.032 101.535H350.868C352.55 101.535 353.988 101.278 355.181 100.762C356.402 100.22 357.324 99.4465 357.948 98.4428C358.572 97.4391 358.884 96.2456 358.884 94.8621C358.884 92.7733 358.165 91.1457 356.728 89.9793C355.317 88.7857 353.364 88.1889 350.868 88.1889H344.032V74.3136H350.624C355.208 74.3136 359.291 75.1817 362.872 76.9178C366.452 78.6539 369.233 81.0817 371.213 84.2013C373.221 87.3209 374.224 90.8745 374.224 94.8621C374.224 98.8497 373.221 102.403 371.213 105.523C369.233 108.642 366.452 111.07 362.872 112.806C359.291 114.543 355.208 115.411 350.624 115.411H344.032V101.535Z" fill="#222222"/>
<path d="M400.917 134.372C396.251 134.372 392.155 133.436 388.629 131.565C385.129 129.693 382.403 127.089 380.45 123.752C378.524 120.415 377.561 116.577 377.561 112.237C377.561 107.924 378.537 104.085 380.491 100.721C382.444 97.3578 385.143 94.7536 388.588 92.909C392.033 91.0372 395.926 90.1014 400.266 90.1014C404.579 90.1014 408.404 91.0372 411.741 92.909C415.077 94.7536 417.668 97.3578 419.512 100.721C421.384 104.058 422.32 107.896 422.32 112.237C422.32 113.512 422.211 114.855 421.994 116.265H385.17V107.313H408.323L407.753 108.086C407.753 106.839 407.441 105.726 406.817 104.75C406.22 103.746 405.352 102.959 404.213 102.39C403.101 101.793 401.785 101.495 400.266 101.495C398.693 101.495 397.282 101.82 396.034 102.471C394.786 103.122 393.796 104.031 393.064 105.197C392.359 106.337 392.006 107.679 392.006 109.226V114.678C392.006 116.279 392.386 117.716 393.145 118.991C393.932 120.239 395.003 121.216 396.36 121.921C397.716 122.626 399.235 122.979 400.917 122.979C402.626 122.979 404.064 122.64 405.23 121.962C406.424 121.256 407.319 120.293 407.916 119.073L420.774 123.508C418.983 126.926 416.393 129.598 413.002 131.524C409.611 133.423 405.583 134.372 400.917 134.372Z" fill="#222222"/>
<path d="M429.237 91.2407H443.967V133.233H429.237V91.2407ZM458.209 111.464C458.209 108.941 457.585 106.974 456.337 105.564C455.116 104.126 453.434 103.407 451.291 103.407C449.827 103.407 448.538 103.773 447.426 104.506C446.314 105.211 445.459 106.35 444.862 107.924C444.266 109.47 443.967 111.45 443.967 113.864L442.421 105.197V97.5476H445.269L442.421 105.197C442.421 102.213 443.058 99.5957 444.333 97.3442C445.635 95.0655 447.412 93.2887 449.664 92.0138C451.942 90.7388 454.533 90.1014 457.436 90.1014C460.609 90.1014 463.363 90.8609 465.696 92.38C468.029 93.8991 469.819 96.0692 471.067 98.8904C472.315 101.684 472.938 105.007 472.938 108.859V133.233H458.209V111.464Z" fill="#222222"/>
<path d="M482.053 91.2407H496.783V133.233H482.053V91.2407ZM511.024 111.464C511.024 108.941 510.401 106.974 509.153 105.564C507.932 104.126 506.25 103.407 504.107 103.407C502.642 103.407 501.354 103.773 500.242 104.506C499.129 105.211 498.275 106.35 497.678 107.924C497.081 109.47 496.783 111.45 496.783 113.864L495.237 105.197V97.5476H498.085L495.237 105.197C495.237 102.213 495.874 99.5957 497.149 97.3442C498.451 95.0655 500.228 93.2887 502.48 92.0138C504.758 90.7388 507.349 90.1014 510.251 90.1014C513.425 90.1014 516.179 90.8609 518.511 92.38C520.844 93.8991 522.635 96.0692 523.883 98.8904C525.13 101.684 525.754 105.007 525.754 108.859V133.233H511.024V111.464Z" fill="#222222"/>
<path d="M529.457 91.2407H544.879L559.73 133.233H546.466L529.457 91.2407ZM546.466 133.233L553.627 117.201H554.929L554.278 117.567L563.677 91.2407H579.058L554.726 150.811H539.304L546.466 133.233Z" fill="#222222"/>
<path d="M587.392 74.3127H602.691V133.232H587.392V74.3127ZM602.528 101.534H609.364C611.046 101.534 612.484 101.277 613.677 100.761C614.898 100.219 615.82 99.4457 616.444 98.442C617.068 97.4383 617.38 96.2447 617.38 94.8612C617.38 92.7725 616.661 91.1449 615.224 89.9784C613.813 88.7849 611.86 88.1881 609.364 88.1881H602.528V74.3127H609.12C613.705 74.3127 617.787 75.1808 621.368 76.9169C624.949 78.653 627.729 81.0809 629.709 84.2004C631.717 87.32 632.72 90.8736 632.72 94.8612C632.72 98.8489 631.717 102.402 629.709 105.522C627.729 108.642 624.949 111.069 621.368 112.806C617.787 114.542 613.705 115.41 609.12 115.41H602.528V101.534Z" fill="#222222"/>
<path d="M670.196 112.236C670.196 117.363 669.613 121.554 668.446 124.809C667.307 128.064 665.639 130.479 663.441 132.052C661.271 133.598 658.586 134.371 655.385 134.371C651.668 134.371 648.332 133.408 645.375 131.482C642.445 129.556 640.153 126.911 638.498 123.548C636.871 120.184 636.057 116.413 636.057 112.236C636.057 108.058 636.871 104.288 638.498 100.924C640.153 97.5604 642.445 94.9155 645.375 92.9895C648.332 91.0635 651.668 90.1005 655.385 90.1005C658.586 90.1005 661.271 90.8736 663.441 92.4198C665.639 93.9389 667.307 96.3397 668.446 99.622C669.613 102.904 670.196 107.109 670.196 112.236L666.046 96.4075H671.173V128.064H666.046L670.196 112.236ZM659.21 121.066C660.837 121.066 662.289 120.686 663.563 119.926C664.866 119.167 665.869 118.122 666.575 116.793C667.307 115.437 667.673 113.918 667.673 112.236C667.673 110.5 667.307 108.967 666.575 107.638C665.869 106.282 664.866 105.237 663.563 104.505C662.289 103.772 660.837 103.406 659.21 103.406C657.609 103.406 656.171 103.772 654.896 104.505C653.622 105.237 652.618 106.282 651.885 107.638C651.153 108.967 650.787 110.5 650.787 112.236C650.787 113.918 651.153 115.437 651.885 116.793C652.618 118.122 653.622 119.167 654.896 119.926C656.171 120.686 657.609 121.066 659.21 121.066ZM667.348 133.232V124.768L669.219 112.236L667.348 101.087V91.2398H682.037V133.232H667.348Z" fill="#222222"/>
<path d="M691.151 74.3127H705.881V133.232H691.151V74.3127Z" fill="#222222"/>
</svg>
