<svg width="106" height="40" viewBox="0 0 106 40" fill="none" xmlns="http://www.w3.org/2000/svg">
<path d="M72.8428 8.10938L68.3663 1.02344C67.9678 0.390625 67.2569 0 66.4991 0H38.6241C37.8663 0 37.1553 0.390625 36.7569 1.02344L32.2725 8.10938C29.96 11.7656 32.0069 16.8516 36.3272 17.4375C36.6397 17.4766 36.96 17.5 37.2725 17.5C39.3116 17.5 41.1241 16.6094 42.3663 15.2344C43.6085 16.6094 45.421 17.5 47.46 17.5C49.4991 17.5 51.3116 16.6094 52.5538 15.2344C53.796 16.6094 55.6085 17.5 57.6475 17.5C59.6944 17.5 61.4991 16.6094 62.7413 15.2344C63.9913 16.6094 65.796 17.5 67.835 17.5C68.1553 17.5 68.4678 17.4766 68.7803 17.4375C73.1163 16.8594 75.171 11.7734 72.8507 8.10938H72.8428ZM69.1007 19.9141H69.0928C68.6788 19.9687 68.2569 20 67.8272 20C66.8585 20 65.9288 19.8516 65.0616 19.5859V30H40.0616V19.5781C39.1866 19.8516 38.2491 20 37.2803 20C36.8507 20 36.421 19.9687 36.0069 19.9141H35.9991C35.6788 19.8672 35.3663 19.8125 35.0616 19.7344V30V35C35.0616 37.7578 37.3038 40 40.0616 40H65.0616C67.8194 40 70.0616 37.7578 70.0616 35V30V19.7344C69.7491 19.8125 69.4366 19.875 69.1007 19.9141Z" fill="#404040"/>
</svg>
