<svg width="30" height="30" viewBox="0 0 35 45" fill="none" xmlns="http://www.w3.org/2000/svg">
<g clip-path="url(#clip0_330_205)">
<path d="M0.00463867 11.6034C0.00463867 10.2066 1.13311 9.07812 2.52989 9.07812H32.8329C34.2297 9.07812 35.3582 10.2066 35.3582 11.6034C35.3582 13.0002 34.2297 14.1286 32.8329 14.1286H2.52989C1.13311 14.1286 0.00463867 13.0002 0.00463867 11.6034ZM0.00463867 21.5781C0.00463867 20.1813 1.13311 19.0529 2.52989 19.0529H32.8329C34.2297 19.0529 35.3582 20.1813 35.3582 21.5781C35.3582 22.9749 34.2297 24.1034 32.8329 24.1034H2.52989C1.13311 24.1034 0.00463867 22.9749 0.00463867 21.5781ZM35.3582 31.5529C35.3582 32.9497 34.2297 34.0781 32.8329 34.0781H2.52989C1.13311 34.0781 0.00463867 32.9497 0.00463867 31.5529C0.00463867 30.1561 1.13311 29.0276 2.52989 29.0276H32.8329C34.2297 29.0276 35.3582 30.1561 35.3582 31.5529Z" fill="#222222"/>
</g>
<defs>
<clipPath id="clip0_330_205">
<rect width="39.375" height="45" fill="white" transform="translate(0.00463867 0.5)"/>
</clipPath>
</defs>
</svg>
