<svg width="30" height="30" viewBox="0 0 32 36" fill="none" xmlns="http://www.w3.org/2000/svg">
<g clip-path="url(#clip0_330_203)">
<path d="M3.11553 0.5C4.3447 0.5 5.33776 1.47754 5.33776 2.6875V3.78125L10.1294 2.60547C12.7753 1.95605 15.5669 2.25684 18.0114 3.45996C21.2266 5.0459 25.0114 5.0459 28.2266 3.45996L28.8933 3.13184C30.3239 2.4209 32.0044 3.44629 32.0044 5.01855V24.1387C32.0044 25.0479 31.428 25.8682 30.56 26.1895L28.1503 27.0781C24.9419 28.2607 21.3725 28.0762 18.31 26.5723C15.678 25.2734 12.6641 24.9521 9.80303 25.6562L5.33776 26.75V33.3125C5.33776 34.5225 4.3447 35.5 3.11553 35.5C1.88637 35.5 0.893311 34.5225 0.893311 33.3125V27.8438V23.332V4.875V2.6875C0.893311 1.47754 1.88637 0.5 3.11553 0.5ZM5.33776 13.29L9.7822 12.3398V16.8174L5.33776 17.7676V22.2383L8.72664 21.4043C9.08081 21.3154 9.42803 21.2402 9.7822 21.1787V16.8174L12.4836 16.2432C13.06 16.1201 13.6433 16.0723 14.2266 16.0996V11.7246C15.1711 11.752 16.1155 11.9023 17.0322 12.1621L18.6711 12.6338V17.1934L15.7753 16.3525C15.2683 16.209 14.7475 16.1201 14.2266 16.0928V20.9736C15.7405 21.1035 17.2336 21.4316 18.6711 21.958V17.1934L20.2475 17.6514C21.185 17.9248 22.1433 18.0889 23.1155 18.1572V13.7617C22.5739 13.707 22.0322 13.6045 21.5044 13.4541L18.6711 12.6338V8.39551C17.7683 8.13574 16.8794 7.79395 16.0183 7.37012C15.4489 7.08984 14.8447 6.8916 14.2266 6.76855V11.7178C13.3239 11.6904 12.4211 11.7725 11.5391 11.9639L9.7822 12.3398V7.19922L5.33776 8.29297V13.29ZM23.1155 23.4482C24.2822 23.5508 25.4697 23.4004 26.5878 22.9834L27.56 22.6279V17.7197L27.0114 17.8428C25.7336 18.1367 24.4211 18.2324 23.1155 18.1504V23.4414V23.4482ZM27.56 13.2354V8.38867C26.1086 8.80566 24.6155 9.01074 23.1155 9.01074V13.7617C24.0808 13.8574 25.06 13.7959 26.0114 13.584L27.56 13.2285V13.2354Z" fill="#222222"/>
</g>
<defs>
<clipPath id="clip0_330_203">
<rect width="31.1111" height="35" fill="white" transform="translate(0.893311 0.5)"/>
</clipPath>
</defs>
</svg>
