<svg width="31" height="27" viewBox="0 0 31 27" fill="none" xmlns="http://www.w3.org/2000/svg">
<path d="M21.7279 5.07373V5.11019C21.4518 5.08936 21.1758 5.07373 20.8945 5.07373H14.2279C13.3685 5.07373 12.5352 5.18311 11.7383 5.38623C11.7331 5.28206 11.7279 5.1779 11.7279 5.07373C11.7279 2.31331 13.9674 0.0737305 16.7279 0.0737305C19.4883 0.0737305 21.7279 2.31331 21.7279 5.07373ZM20.8945 6.7404C21.0768 6.7404 21.2591 6.74561 21.4362 6.75602C21.6549 6.77165 21.8737 6.79248 22.0924 6.82373C23.0091 5.75602 24.3737 5.07373 25.8945 5.07373H26.4935C27.0352 5.07373 27.431 5.58415 27.3008 6.11019L26.582 8.98519C27.4049 9.75602 28.0768 10.6935 28.5352 11.7404H29.2279C30.1497 11.7404 30.8945 12.4852 30.8945 13.4071V18.4071C30.8945 19.3289 30.1497 20.0737 29.2279 20.0737H27.5612C27.0872 20.7039 26.5247 21.2664 25.8945 21.7404V25.0737C25.8945 25.9956 25.1497 26.7404 24.2279 26.7404H22.5612C21.6393 26.7404 20.8945 25.9956 20.8945 25.0737V23.4071H14.2279V25.0737C14.2279 25.9956 13.4831 26.7404 12.5612 26.7404H10.8945C9.97266 26.7404 9.22786 25.9956 9.22786 25.0737V21.7404C7.41016 20.3758 6.17057 18.2873 5.9362 15.9071H4.4362C2.47786 15.9071 0.894531 14.3237 0.894531 12.3654C0.894531 10.4071 2.47786 8.82373 4.4362 8.82373H4.64453C5.33724 8.82373 5.89453 9.38102 5.89453 10.0737C5.89453 10.7664 5.33724 11.3237 4.64453 11.3237H4.4362C3.86328 11.3237 3.39453 11.7925 3.39453 12.3654C3.39453 12.9383 3.86328 13.4071 4.4362 13.4071H6.0612C6.69141 10.2925 9.06641 7.80811 12.1185 7.01123C12.7904 6.83415 13.4987 6.7404 14.2279 6.7404H20.8945ZM24.2279 13.8237C24.2279 13.4922 24.0962 13.1743 23.8617 12.9398C23.6273 12.7054 23.3094 12.5737 22.9779 12.5737C22.6463 12.5737 22.3284 12.7054 22.094 12.9398C21.8596 13.1743 21.7279 13.4922 21.7279 13.8237C21.7279 14.1553 21.8596 14.4732 22.094 14.7076C22.3284 14.942 22.6463 15.0737 22.9779 15.0737C23.3094 15.0737 23.6273 14.942 23.8617 14.7076C24.0962 14.4732 24.2279 14.1553 24.2279 13.8237Z" fill="#404040"/>
</svg>
