<svg width="31" height="31" viewBox="0 0 31 31" fill="none" xmlns="http://www.w3.org/2000/svg">
<g clip-path="url(#clip0_330_213)">
<circle cx="15.9478" cy="15.4054" r="15" fill="#404040"/>
<g clip-path="url(#clip1_330_213)">
<path d="M11.9478 11.2179C11.9478 10.1837 12.7886 9.3429 13.8228 9.3429H16.6353C19.2251 9.3429 21.3228 11.4406 21.3228 14.0304C21.3228 16.6202 19.2251 18.7179 16.6353 18.7179H13.8228V21.5304C13.8228 22.049 13.4038 22.4679 12.8853 22.4679C12.3667 22.4679 11.9478 22.049 11.9478 21.5304V17.7804V11.2179ZM13.8228 16.8429H16.6353C18.188 16.8429 19.4478 15.5831 19.4478 14.0304C19.4478 12.4777 18.188 11.2179 16.6353 11.2179H13.8228V16.8429Z" fill="#FCFCFC"/>
</g>
</g>
<defs>
<clipPath id="clip0_330_213">
<rect width="30" height="30" fill="white" transform="translate(0.947754 0.405396)"/>
</clipPath>
<clipPath id="clip1_330_213">
<rect width="9.375" height="15" fill="white" transform="translate(11.9478 8.4054)"/>
</clipPath>
</defs>
</svg>
