<svg width="111" height="40" viewBox="0 0 111 40" fill="none" xmlns="http://www.w3.org/2000/svg">
<g clip-path="url(#clip0_330_197)">
<path d="M58.2029 4.2266L56.3591 0.492226C56.0544 -0.156211 55.1013 -0.179649 54.7654 0.492226L52.9216 4.2266L48.8357 4.81254C48.1091 4.92191 47.7966 5.82035 48.3357 6.35941L51.3044 9.25004L50.6013 13.3203C50.4919 14.0469 51.2419 14.6094 51.9138 14.2735L55.5779 12.336L59.2185 14.2422C59.8904 14.5782 60.6482 14.0157 60.531 13.2891L59.8279 9.21879L62.7966 6.35941C63.3279 5.82816 63.0232 4.92973 62.2966 4.81254L58.2107 4.2266H58.2029ZM50.5623 20C49.1794 20 48.0623 21.1172 48.0623 22.5V37.5C48.0623 38.8828 49.1794 40 50.5623 40H60.5623C61.9451 40 63.0623 38.8828 63.0623 37.5V22.5C63.0623 21.1172 61.9451 20 60.5623 20H50.5623ZM33.0623 25C31.6794 25 30.5623 26.1172 30.5623 27.5V37.5C30.5623 38.8828 31.6794 40 33.0623 40H43.0623C44.4451 40 45.5623 38.8828 45.5623 37.5V27.5C45.5623 26.1172 44.4451 25 43.0623 25H33.0623ZM65.5623 32.5V37.5C65.5623 38.8828 66.6794 40 68.0623 40H78.0623C79.4451 40 80.5623 38.8828 80.5623 37.5V32.5C80.5623 31.1172 79.4451 30 78.0623 30H68.0623C66.6794 30 65.5623 31.1172 65.5623 32.5Z" fill="#404040"/>
</g>
<defs>
<clipPath id="clip0_330_197">
<rect width="50" height="40" fill="white" transform="translate(30.5623)"/>
</clipPath>
</defs>
</svg>
