<svg width="15" height="21" viewBox="0 0 15 21" fill="none" xmlns="http://www.w3.org/2000/svg">
<path d="M0.546875 0.308915C0.878906 0.156571 1.26953 0.211258 1.54688 0.44954L3.125 1.8011L4.70313 0.44954C5.05469 0.148758 5.57422 0.148758 5.92188 0.44954L7.5 1.8011L9.07813 0.44954C9.42969 0.148758 9.94922 0.148758 10.2969 0.44954L11.875 1.8011L13.4531 0.44954C13.7305 0.211258 14.1211 0.156571 14.4531 0.308915C14.7852 0.461258 15 0.79329 15 1.16048V19.2855C15 19.6527 14.7852 19.9847 14.4531 20.137C14.1211 20.2894 13.7305 20.2347 13.4531 19.9964L11.875 18.6449L10.2969 19.9964C9.94531 20.2972 9.42578 20.2972 9.07813 19.9964L7.5 18.6449L5.92188 19.9964C5.57031 20.2972 5.05078 20.2972 4.70313 19.9964L3.125 18.6449L1.54688 19.9964C1.26953 20.2347 0.878906 20.2894 0.546875 20.137C0.214844 19.9847 0 19.6527 0 19.2855V1.16048C0 0.79329 0.214844 0.461258 0.546875 0.308915ZM3.75 5.84798C3.40625 5.84798 3.125 6.12923 3.125 6.47298C3.125 6.81673 3.40625 7.09798 3.75 7.09798H11.25C11.5938 7.09798 11.875 6.81673 11.875 6.47298C11.875 6.12923 11.5938 5.84798 11.25 5.84798H3.75ZM3.125 13.973C3.125 14.3167 3.40625 14.598 3.75 14.598H11.25C11.5938 14.598 11.875 14.3167 11.875 13.973C11.875 13.6292 11.5938 13.348 11.25 13.348H3.75C3.40625 13.348 3.125 13.6292 3.125 13.973ZM3.75 9.59798C3.40625 9.59798 3.125 9.87923 3.125 10.223C3.125 10.5667 3.40625 10.848 3.75 10.848H11.25C11.5938 10.848 11.875 10.5667 11.875 10.223C11.875 9.87923 11.5938 9.59798 11.25 9.59798H3.75Z" fill="#FCFCFC"/>
</svg>
