<svg width="111" height="40" viewBox="0 0 111 40" fill="none" xmlns="http://www.w3.org/2000/svg">
<g clip-path="url(#clip0_330_194)">
<path d="M36.1873 6.875C36.1873 5.71468 36.6482 4.60188 37.4687 3.78141C38.2891 2.96094 39.4019 2.5 40.5623 2.5C41.7226 2.5 42.8354 2.96094 43.6558 3.78141C44.4763 4.60188 44.9373 5.71468 44.9373 6.875C44.9373 8.03532 44.4763 9.14812 43.6558 9.96859C42.8354 10.7891 41.7226 11.25 40.5623 11.25C39.4019 11.25 38.2891 10.7891 37.4687 9.96859C36.6482 9.14812 36.1873 8.03532 36.1873 6.875ZM35.5623 19.1953C34.781 20.0703 34.3123 21.2344 34.3123 22.5C34.3123 23.7656 34.781 24.9297 35.5623 25.8047V19.1953ZM46.8435 15.3437C44.5232 17.3984 43.0623 20.4063 43.0623 23.75C43.0623 26.4297 43.9998 28.8906 45.5623 30.8203V32.5C45.5623 33.8828 44.4451 35 43.0623 35H38.0623C36.6794 35 35.5623 33.8828 35.5623 32.5V30.4063C32.6091 29 30.5623 25.9922 30.5623 22.5C30.5623 17.6641 34.4763 13.75 39.3123 13.75H41.8123C43.6873 13.75 45.4216 14.3359 46.8435 15.3359V15.3437ZM65.5623 32.5V30.8203C67.1248 28.8906 68.0623 26.4297 68.0623 23.75C68.0623 20.4063 66.6013 17.3984 64.281 15.3359C65.7029 14.3359 67.4373 13.75 69.3123 13.75H71.8123C76.6482 13.75 80.5623 17.6641 80.5623 22.5C80.5623 25.9922 78.5154 29 75.5623 30.4063V32.5C75.5623 33.8828 74.4451 35 73.0623 35H68.0623C66.6794 35 65.5623 33.8828 65.5623 32.5ZM66.1873 6.875C66.1873 5.71468 66.6482 4.60188 67.4687 3.78141C68.2891 2.96094 69.4019 2.5 70.5623 2.5C71.7226 2.5 72.8354 2.96094 73.6558 3.78141C74.4763 4.60188 74.9373 5.71468 74.9373 6.875C74.9373 8.03532 74.4763 9.14812 73.6558 9.96859C72.8354 10.7891 71.7226 11.25 70.5623 11.25C69.4019 11.25 68.2891 10.7891 67.4687 9.96859C66.6482 9.14812 66.1873 8.03532 66.1873 6.875ZM75.5623 19.1953V25.8125C76.3435 24.9297 76.8123 23.7734 76.8123 22.5078C76.8123 21.2422 76.3435 20.0781 75.5623 19.2031V19.1953ZM55.5623 2.5C56.8883 2.5 58.1601 3.02678 59.0978 3.96447C60.0355 4.90215 60.5623 6.17392 60.5623 7.5C60.5623 8.82608 60.0355 10.0979 59.0978 11.0355C58.1601 11.9732 56.8883 12.5 55.5623 12.5C54.2362 12.5 52.9644 11.9732 52.0267 11.0355C51.089 10.0979 50.5623 8.82608 50.5623 7.5C50.5623 6.17392 51.089 4.90215 52.0267 3.96447C52.9644 3.02678 54.2362 2.5 55.5623 2.5ZM49.3123 23.75C49.3123 25.0156 49.781 26.1719 50.5623 27.0547V20.4453C49.781 21.3281 49.3123 22.4844 49.3123 23.75ZM60.5623 20.4453V27.0625C61.3435 26.1797 61.8123 25.0234 61.8123 23.7578C61.8123 22.4922 61.3435 21.3281 60.5623 20.4531V20.4453ZM65.5623 23.75C65.5623 27.2422 63.5154 30.25 60.5623 31.6563V35C60.5623 36.3828 59.4451 37.5 58.0623 37.5H53.0623C51.6794 37.5 50.5623 36.3828 50.5623 35V31.6563C47.6091 30.25 45.5623 27.2422 45.5623 23.75C45.5623 18.9141 49.4763 15 54.3123 15H56.8123C61.6482 15 65.5623 18.9141 65.5623 23.75Z" fill="#404040"/>
</g>
<defs>
<clipPath id="clip0_330_194">
<rect width="50" height="40" fill="white" transform="translate(30.5623)"/>
</clipPath>
</defs>
</svg>
