<svg width="31" height="17" viewBox="0 0 31 17" fill="none" xmlns="http://www.w3.org/2000/svg">
<path d="M20.5636 3.40858C19.6418 3.40858 18.8971 2.66389 18.8971 1.74213C18.8971 0.820378 19.6418 0.0756836 20.5636 0.0756836H28.8958C29.8176 0.0756836 30.5623 0.820378 30.5623 1.74213V10.0744C30.5623 10.9961 29.8176 11.7408 28.8958 11.7408C27.9741 11.7408 27.2294 10.9961 27.2294 10.0744V5.76765L18.4076 14.5842C17.7566 15.2352 16.6995 15.2352 16.0485 14.5842L10.5649 9.10055L3.40954 16.2507C2.75858 16.9016 1.70143 16.9016 1.05047 16.2507C0.399517 15.5997 0.399517 14.5425 1.05047 13.8916L9.38272 5.55934C10.0337 4.90839 11.0908 4.90839 11.7418 5.55934L17.2307 11.0482L24.8703 3.40858H20.5636Z" fill="#404040"/>
</svg>
