<svg width="36" height="36" viewBox="0 0 36 36" fill="none" xmlns="http://www.w3.org/2000/svg">
<g clip-path="url(#clip0_330_207)">
<path d="M27.655 26.7637C26.1443 24.1387 23.3074 22.375 20.0671 22.375H15.6921C12.4519 22.375 9.61499 24.1387 8.10425 26.7637C10.5105 29.4434 13.9968 31.125 17.8796 31.125C21.7625 31.125 25.2488 29.4365 27.655 26.7637ZM0.379639 18C0.379639 13.3587 2.22338 8.90752 5.50527 5.62563C8.78716 2.34375 13.2383 0.5 17.8796 0.5C22.5209 0.5 26.9721 2.34375 30.254 5.62563C33.5359 8.90752 35.3796 13.3587 35.3796 18C35.3796 22.6413 33.5359 27.0925 30.254 30.3744C26.9721 33.6563 22.5209 35.5 17.8796 35.5C13.2383 35.5 8.78716 33.6563 5.50527 30.3744C2.22338 27.0925 0.379639 22.6413 0.379639 18ZM17.8796 19.0938C19.185 19.0938 20.4369 18.5752 21.3599 17.6522C22.283 16.7291 22.8015 15.4772 22.8015 14.1719C22.8015 12.8665 22.283 11.6146 21.3599 10.6916C20.4369 9.76855 19.185 9.25 17.8796 9.25C16.5743 9.25 15.3224 9.76855 14.3993 10.6916C13.4763 11.6146 12.9578 12.8665 12.9578 14.1719C12.9578 15.4772 13.4763 16.7291 14.3993 17.6522C15.3224 18.5752 16.5743 19.0938 17.8796 19.0938Z" fill="#222222"/>
</g>
<defs>
<clipPath id="clip0_330_207">
<rect width="35" height="35" fill="white" transform="translate(0.379639 0.5)"/>
</clipPath>
</defs>
</svg>
