<svg width="25" height="29" viewBox="0 0 25 29" fill="none" xmlns="http://www.w3.org/2000/svg">
<g clip-path="url(#clip0_126_1444)">
<path d="M4.82143 0.477818L3.44866 2.82715C3.23661 3.18987 3.125 3.6084 3.125 4.03251V4.18876C3.125 5.42201 4.12388 6.4209 5.35714 6.4209C6.5904 6.4209 7.58929 5.42201 7.58929 4.18876V4.03251C7.58929 3.6084 7.47768 3.19545 7.26562 2.82715L5.89286 0.477818C5.78125 0.288086 5.58036 0.170898 5.35714 0.170898C5.13393 0.170898 4.93304 0.288086 4.82143 0.477818ZM11.9643 0.477818L10.5915 2.82715C10.3795 3.18987 10.2679 3.6084 10.2679 4.03251V4.18876C10.2679 5.42201 11.2667 6.4209 12.5 6.4209C13.7333 6.4209 14.7321 5.42201 14.7321 4.18876V4.03251C14.7321 3.6084 14.6205 3.19545 14.4085 2.82715L13.0357 0.477818C12.9241 0.288086 12.7232 0.170898 12.5 0.170898C12.2768 0.170898 12.0759 0.288086 11.9643 0.477818ZM17.7344 2.82715C17.5223 3.18987 17.4107 3.6084 17.4107 4.03251V4.18876C17.4107 5.42201 18.4096 6.4209 19.6429 6.4209C20.8761 6.4209 21.875 5.42201 21.875 4.18876V4.03251C21.875 3.6084 21.7634 3.19545 21.5513 2.82715L20.1786 0.477818C20.067 0.288086 19.8661 0.170898 19.6429 0.170898C19.4196 0.170898 19.2188 0.288086 19.1071 0.477818L17.7344 2.82715ZM7.14286 9.99233C7.14286 9.0046 6.34487 8.20661 5.35714 8.20661C4.36942 8.20661 3.57143 9.0046 3.57143 9.99233V12.6709C1.60156 12.6709 0 14.2725 0 16.2423V20.2044C0.46317 20.4946 1.01004 20.7066 1.60714 20.7066C2.36049 20.7066 3.125 20.3662 3.75 19.9588C4.05134 19.7635 4.30245 19.5626 4.47545 19.4175C4.55915 19.345 4.62612 19.2836 4.67076 19.2446C4.69308 19.2222 4.70982 19.2111 4.7154 19.1999L4.72098 19.1943C4.89397 19.0158 5.13393 18.9209 5.38504 18.9265C5.63616 18.9321 5.86496 19.0437 6.03237 19.2278L6.03795 19.2334C6.04353 19.239 6.06027 19.2557 6.07701 19.2725C6.11607 19.3115 6.17188 19.3673 6.25 19.4399C6.40625 19.585 6.62946 19.7803 6.90848 19.97C7.47768 20.3662 8.19196 20.701 8.93415 20.701C9.67634 20.701 10.3906 20.3662 10.9598 19.97C11.2388 19.7747 11.4621 19.585 11.6183 19.4399C11.6964 19.3673 11.7522 19.3115 11.7913 19.2725C11.808 19.2557 11.8248 19.239 11.8304 19.2334L11.8359 19.2278C12.0033 19.0325 12.2489 18.9265 12.5056 18.9265C12.7623 18.9265 13.0078 19.0381 13.1752 19.2278L13.1808 19.2334C13.1864 19.239 13.2031 19.2557 13.2199 19.2725C13.2589 19.3115 13.3147 19.3673 13.3929 19.4399C13.5491 19.585 13.7723 19.7803 14.0513 19.97C14.6205 20.3662 15.3348 20.701 16.077 20.701C16.8192 20.701 17.5335 20.3662 18.1027 19.97C18.3817 19.7747 18.6049 19.585 18.7612 19.4399C18.8393 19.3673 18.8951 19.3115 18.9342 19.2725C18.9509 19.2557 18.9676 19.239 18.9732 19.2334L18.9788 19.2278C19.1406 19.0381 19.375 18.9321 19.6261 18.9265C19.8772 18.9209 20.1116 19.0158 20.2902 19.1943L20.2958 19.1999C20.3069 19.2111 20.3181 19.2222 20.3404 19.2446C20.385 19.2836 20.4464 19.345 20.5357 19.4175C20.7087 19.5626 20.9542 19.7635 21.2612 19.9588C21.8862 20.3662 22.6507 20.7066 23.404 20.7066C24.0011 20.7066 24.548 20.489 25.0112 20.2044V16.2423C25.0112 14.2725 23.4096 12.6709 21.4397 12.6709V9.99233C21.4397 9.0046 20.6417 8.20661 19.654 8.20661C18.6663 8.20661 17.8683 9.0046 17.8683 9.99233V12.6709H14.2857V9.99233C14.2857 9.0046 13.4877 8.20661 12.5 8.20661C11.5123 8.20661 10.7143 9.0046 10.7143 9.99233V12.6709H7.14286V9.99233ZM25 22.191C24.5257 22.3751 23.9844 22.4923 23.3929 22.4923C22.1373 22.4923 21.0268 21.9399 20.279 21.4544C20.0502 21.3037 19.8438 21.153 19.6708 21.0191C19.5145 21.153 19.3304 21.2981 19.1239 21.4376C18.404 21.9343 17.3326 22.4923 16.0714 22.4923C14.8103 22.4923 13.7388 21.9343 13.0246 21.4376C12.8292 21.3037 12.6507 21.1642 12.5 21.0359C12.3493 21.1642 12.1708 21.2981 11.9754 21.4376C11.2612 21.9343 10.1897 22.4923 8.92857 22.4923C7.66741 22.4923 6.59598 21.9343 5.8817 21.4376C5.67522 21.2926 5.49107 21.1475 5.33482 21.0191C5.16183 21.153 4.95536 21.3037 4.72656 21.4544C3.97321 21.9399 2.86272 22.4923 1.60714 22.4923C1.01562 22.4923 0.47433 22.3696 0 22.191V26.9566C0 27.9443 0.797991 28.7423 1.78571 28.7423H23.2143C24.202 28.7423 25 27.9443 25 26.9566V22.191Z" fill="#404040"/>
</g>
<defs>
<clipPath id="clip0_126_1444">
<rect width="25" height="28.5714" fill="white" transform="translate(0 0.170898)"/>
</clipPath>
</defs>
</svg>
