<svg width="25" height="20" viewBox="0 0 25 20" fill="none" xmlns="http://www.w3.org/2000/svg">
<path d="M2.34375 0.819824C1.0498 0.819824 0 1.86963 0 3.16357C0 3.90088 0.34668 4.59424 0.9375 5.03857L11.5625 13.0073C12.1191 13.4224 12.8809 13.4224 13.4375 13.0073L24.0625 5.03857C24.6533 4.59424 25 3.90088 25 3.16357C25 1.86963 23.9502 0.819824 22.6562 0.819824H2.34375ZM0 6.28857V16.4448C0 18.1685 1.40137 19.5698 3.125 19.5698H21.875C23.5986 19.5698 25 18.1685 25 16.4448V6.28857L14.375 14.2573C13.2617 15.0923 11.7383 15.0923 10.625 14.2573L0 6.28857Z" fill="#404040"/>
</svg>
