<svg width="32" height="20" viewBox="0 0 32 20" fill="none" xmlns="http://www.w3.org/2000/svg">
<path d="M13.291 0.849121L10.7959 3.34424C10.0488 3.54932 9.35547 3.92529 8.76953 4.44287L7.4707 5.6001C6.97266 6.04443 6.32324 6.28857 5.6543 6.28857H4.6875V12.5386C5.68359 12.5679 6.63086 12.9731 7.33887 13.6812L9.07715 15.4194L9.41895 15.7612L10.7373 17.0796C11.04 17.3823 11.5381 17.3823 11.8408 17.0796C11.9238 16.9966 11.9873 16.8989 12.0215 16.7964C12.1582 16.4204 12.4756 16.1372 12.8662 16.0493C13.2568 15.9614 13.667 16.0786 13.9502 16.3667L14.4775 16.8843C15.0439 17.4507 15.9619 17.4507 16.5234 16.8843C16.7871 16.6206 16.9287 16.2837 16.9434 15.937C16.9629 15.5073 17.2168 15.1265 17.6074 14.9409C17.998 14.7554 18.4521 14.7944 18.7988 15.0435C19.2578 15.3706 19.8975 15.3267 20.3076 14.9165C20.7666 14.4575 20.7666 13.7153 20.3076 13.2612L16.6064 9.56006L14.8584 11.1714C13.5254 12.4019 11.4795 12.4214 10.1221 11.2153C8.57422 9.83838 8.54004 7.43603 10.0439 6.01514L13.4668 2.78271C14.8047 1.52295 16.5723 0.819824 18.4131 0.819824C20.1758 0.819824 21.8799 1.46924 23.1934 2.63623L24.6631 3.94482H26.5625H28.5156H30.4688C30.8984 3.94482 31.25 4.29639 31.25 4.72607V14.8823C31.25 15.7466 30.5518 16.4448 29.6875 16.4448H28.125C27.5488 16.4448 27.041 16.1323 26.7725 15.6636H22.627C22.4609 15.9907 22.2412 16.3032 21.9678 16.5767C21.1328 17.4116 19.9756 17.7388 18.8916 17.5581C18.7158 17.9146 18.4766 18.2466 18.1787 18.5444C16.8457 19.8774 14.7607 20.0093 13.2764 18.9399C12.0508 19.9556 10.2246 19.8921 9.07715 18.7397L7.76367 17.4214L7.42188 17.0796L5.68359 15.3413C5.41504 15.0728 5.06348 14.9165 4.6875 14.8872C4.6875 15.7466 3.98438 16.4448 3.125 16.4448H1.5625C0.698242 16.4448 0 15.7466 0 14.8823V4.72607C0 4.29639 0.351562 3.94482 0.78125 3.94482H2.73438H4.6875H5.6543C5.75195 3.94482 5.84473 3.91064 5.91309 3.84717L7.20703 2.69482C8.56934 1.48877 10.3223 0.819824 12.1436 0.819824H12.6465C12.8613 0.819824 13.0811 0.82959 13.291 0.849121ZM26.5625 13.3198V6.28857H24.2188C23.9307 6.28857 23.6523 6.18115 23.4424 5.99072L21.6406 4.38916C20.752 3.59814 19.6045 3.16357 18.4131 3.16357C17.1729 3.16357 15.9814 3.63721 15.0781 4.48682L11.6553 7.71924C11.1523 8.19775 11.1621 9.00342 11.6797 9.4624C12.1338 9.86768 12.8223 9.85791 13.2666 9.44775L16.7773 6.20557C17.251 5.76611 17.9932 5.79541 18.4326 6.27393C18.8721 6.75244 18.8428 7.48975 18.3643 7.9292L18.3252 7.96826L21.958 11.6011C22.4463 12.0894 22.7637 12.6899 22.9053 13.3149H26.5625V13.3198ZM3.125 14.1011C3.125 13.8939 3.04269 13.6952 2.89618 13.5486C2.74966 13.4021 2.55095 13.3198 2.34375 13.3198C2.13655 13.3198 1.93784 13.4021 1.79132 13.5486C1.64481 13.6952 1.5625 13.8939 1.5625 14.1011C1.5625 14.3083 1.64481 14.507 1.79132 14.6535C1.93784 14.8 2.13655 14.8823 2.34375 14.8823C2.55095 14.8823 2.74966 14.8 2.89618 14.6535C3.04269 14.507 3.125 14.3083 3.125 14.1011ZM28.9062 14.8823C29.1135 14.8823 29.3122 14.8 29.4587 14.6535C29.6052 14.507 29.6875 14.3083 29.6875 14.1011C29.6875 13.8939 29.6052 13.6952 29.4587 13.5486C29.3122 13.4021 29.1135 13.3198 28.9062 13.3198C28.699 13.3198 28.5003 13.4021 28.3538 13.5486C28.2073 13.6952 28.125 13.8939 28.125 14.1011C28.125 14.3083 28.2073 14.507 28.3538 14.6535C28.5003 14.8 28.699 14.8823 28.9062 14.8823Z" fill="#404040"/>
</svg>
