<svg width="25" height="35" viewBox="0 0 25 35" fill="none" xmlns="http://www.w3.org/2000/svg">
<g clip-path="url(#clip0_126_1442)">
<path d="M16.6667 3.96289V5.00456C16.6667 6.1569 15.7357 7.08789 14.5833 7.08789H10.4167C9.26432 7.08789 8.33333 6.1569 8.33333 5.00456V3.96289H4.16667C3.59375 3.96289 3.125 4.43164 3.125 5.00456V30.0046C3.125 30.5775 3.59375 31.0462 4.16667 31.0462H20.8333C21.4062 31.0462 21.875 30.5775 21.875 30.0046V5.00456C21.875 4.43164 21.4062 3.96289 20.8333 3.96289H16.6667ZM0 5.00456C0 2.70638 1.86849 0.837891 4.16667 0.837891H20.8333C23.1315 0.837891 25 2.70638 25 5.00456V30.0046C25 32.3027 23.1315 34.1712 20.8333 34.1712H4.16667C1.86849 34.1712 0 32.3027 0 30.0046V5.00456ZM10.4167 21.6712H14.5833C17.4609 21.6712 19.7917 24.002 19.7917 26.8796C19.7917 27.4525 19.3229 27.9212 18.75 27.9212H6.25C5.67708 27.9212 5.20833 27.4525 5.20833 26.8796C5.20833 24.002 7.53906 21.6712 10.4167 21.6712ZM8.33333 15.4212C8.33333 14.3162 8.77232 13.2563 9.55372 12.4749C10.3351 11.6935 11.3949 11.2546 12.5 11.2546C13.6051 11.2546 14.6649 11.6935 15.4463 12.4749C16.2277 13.2563 16.6667 14.3162 16.6667 15.4212C16.6667 16.5263 16.2277 17.5861 15.4463 18.3675C14.6649 19.1489 13.6051 19.5879 12.5 19.5879C11.3949 19.5879 10.3351 19.1489 9.55372 18.3675C8.77232 17.5861 8.33333 16.5263 8.33333 15.4212Z" fill="#404040"/>
</g>
<defs>
<clipPath id="clip0_126_1442">
<rect width="25" height="33.3333" fill="white" transform="translate(0 0.837891)"/>
</clipPath>
</defs>
</svg>
