<svg width="25" height="29" viewBox="0 0 25 29" fill="none" xmlns="http://www.w3.org/2000/svg">
<path d="M8.03571 8.30183V10.9804H16.9643V8.30183C16.9643 5.83531 14.9665 3.83754 12.5 3.83754C10.0335 3.83754 8.03571 5.83531 8.03571 8.30183ZM4.46429 10.9804V8.30183C4.46429 3.86544 8.06362 0.266113 12.5 0.266113C16.9364 0.266113 20.5357 3.86544 20.5357 8.30183V10.9804H21.4286C23.3984 10.9804 25 12.582 25 14.5518V25.2661C25 27.236 23.3984 28.8375 21.4286 28.8375H3.57143C1.60156 28.8375 0 27.236 0 25.2661V14.5518C0 12.582 1.60156 10.9804 3.57143 10.9804H4.46429Z" fill="#404040"/>
</svg>
