<svg width="25" height="30" viewBox="0 0 25 30" fill="none" xmlns="http://www.w3.org/2000/svg">
<g clip-path="url(#clip0_126_1448)">
<path d="M12.5 15.0279C14.3944 15.0279 16.2112 14.2754 17.5508 12.9358C18.8903 11.5963 19.6429 9.77945 19.6429 7.88504C19.6429 5.99064 18.8903 4.17383 17.5508 2.83428C16.2112 1.49474 14.3944 0.742188 12.5 0.742188C10.6056 0.742188 8.78878 1.49474 7.44924 2.83428C6.10969 4.17383 5.35714 5.99064 5.35714 7.88504C5.35714 9.77945 6.10969 11.5963 7.44924 12.9358C8.78878 14.2754 10.6056 15.0279 12.5 15.0279ZM9.94978 17.7065C4.45312 17.7065 0 22.1596 0 27.6562C0 28.5714 0.742188 29.3136 1.65737 29.3136H23.3426C24.2578 29.3136 25 28.5714 25 27.6562C25 22.1596 20.5469 17.7065 15.0502 17.7065H9.94978Z" fill="#404040"/>
</g>
<defs>
<clipPath id="clip0_126_1448">
<rect width="25" height="28.5714" fill="white" transform="translate(0 0.742188)"/>
</clipPath>
</defs>
</svg>
